<?xml version="1.0" standalone="no"?>
<!DOCTYPE svg PUBLIC "-//W3C//DTD SVG 1.1//EN" "http://www.w3.org/Graphics/SVG/1.1/DTD/svg11.dtd" >
<svg xmlns="http://www.w3.org/2000/svg" xmlns:xlink="http://www.w3.org/1999/xlink" version="1.1">
<metadata></metadata>
<defs>
<font id="santana-blackcondensedregular" horiz-adv-x="909" >
<font-face units-per-em="2048" ascent="1638" descent="-410" />
<missing-glyph horiz-adv-x="327" />
<glyph horiz-adv-x="0" />
<glyph horiz-adv-x="682" />
<glyph horiz-adv-x="614" d="M80 1374q-20 0 -21 -22q0 -111 61.5 -179.5t180.5 -68.5q127 0 190.5 68.5t63.5 179.5q0 23 -20 22h-134q-23 0 -22 -22q0 -25 -13.5 -45.5t-60.5 -20.5q-68 0 -67 66q0 23 -23 22h-135z" />
<glyph horiz-adv-x="614" d="M307 1092q66 0 109 45t43 116q0 72 -43 116t-109 44q-61 0 -106 -45t-45 -115q0 -72 44 -116.5t107 -44.5z" />
<glyph horiz-adv-x="819" d="M412 1487q-125 0 -178.5 -61.5t-53.5 -151.5q0 -84 54.5 -141.5t177.5 -57.5q117 0 172 60.5t55 146.5q0 90 -52 147.5t-175 57.5zM410 1350q37 0 46 -23.5t9 -46.5q0 -20 -10.5 -45t-44.5 -25q-33 0 -42.5 25t-9.5 41q0 23 10.5 48.5t41.5 25.5z" />
<glyph unicode="&#xa;" horiz-adv-x="614" d="M274 1417q-4 0 -11 -4t-9 -8l-139 -281q-6 -12 0 -22t20 -10h141q10 0 17 10l196 282q8 12 3 22.5t-19 10.5h-199zM547 1417q-14 0 -19 -12l-139 -281q-6 -12 0 -22t19 -10h141q12 0 18 10l197 282q8 12 3 22.5t-22 10.5h-198z" />
<glyph horiz-adv-x="614" d="M305 43q-27 -12 -62.5 -34.5t-67.5 -56.5t-54.5 -77t-22.5 -98q0 -72 52.5 -121t150.5 -49q35 0 71 5t70 21l9.5 9.5t3.5 13.5l-17 111q-4 20 -28 14q-23 -6 -62 -6q-29 0 -40 16t-11 37q0 18 12.5 40.5t34 46.5t49 46.5t58.5 40.5q16 10 11 25.5t-22 15.5h-135z" />
<glyph horiz-adv-x="614" d="M412 1092q12 0 18 10l170 282q8 12 2 22.5t-18 10.5h-195q-12 0 -20 -12q-16 -35 -29.5 -57.5t-30.5 -57.5l-65 115q-8 12 -21 12h-190q-14 0 -20.5 -10t1.5 -23l170 -282q6 -10 19 -10h209z" />
<glyph unicode="&#xd;" horiz-adv-x="489" d="M399 0q20 0 21 23v976q0 20 -21 21h-309q-20 0 -20 -21v-976q0 -23 20 -23h309z" />
<glyph horiz-adv-x="614" d="M35 -16q12 0 20 12l699 1323q6 12 0 21.5t-21 9.5h-149q-12 0 -21 -13l-700 -1321q-6 -12 0 -22t20 -10h152z" />
<glyph horiz-adv-x="1064" d="M457 -381q23 0 22 23v1120h156v-739q0 -23 20 -23h310q20 0 20 23v976q0 20 -20 21h-486v6q0 43 33 79t123 36q61 0 106 -8.5t80 -18.5q27 -8 27 16l39 240q2 8 -3 14.5t-12 10.5q-100 39 -256 39q-154 0 -249 -45.5t-148 -107.5t-71.5 -129t-18.5 -108v-24h-115 q-20 0 -20 -21v-215q0 -23 20 -22h115v-1120q0 -23 21 -23h307z" />
<glyph horiz-adv-x="1064" d="M457 -381q23 0 22 23v1120h109q23 0 22 22v215q0 20 -22 21h-109v22q0 41 24.5 75t78.5 34q16 0 29.5 -1t23.5 -3v-1124q0 -23 20 -23h310q20 0 20 23v1335q0 16 -12 20q-59 18 -153.5 37t-198.5 19q-133 0 -219.5 -34t-139.5 -81q-37 -31 -61.5 -72t-41 -82t-23.5 -77.5 t-7 -59.5v-8h-115q-20 0 -20 -21v-215q0 -23 20 -22h115v-1120q0 -23 21 -23h307z" />
<glyph horiz-adv-x="808" d="M760 0q23 0 22 23v260q0 20 -22 20h-305v361l163 110q10 4 11 19v254q0 14 -10.5 20t-22.5 -2q-35 -23 -71 -47.5t-70 -48.5v391q0 23 -23 22h-307q-23 0 -23 -22v-625l-102 -71q-10 -6 -10 -19v-254q0 -16 11 -21t24 3q18 14 38.5 27.5t38.5 25.5v-403q0 -23 23 -23h635 z" />
<glyph horiz-adv-x="489" d="M399 0q20 0 21 23v686l96 71q4 2 6 8.5t2 10.5v250q0 16 -12 21t-25 -3q-16 -12 -33.5 -25.5t-33.5 -25.5v381q0 20 -21 20h-309q-20 0 -20 -20v-584l-97 -72q-4 -2 -6 -8t-2 -10v-250q0 -16 12.5 -22.5t24.5 4.5q16 12 33.5 25.5t34.5 23.5v-481q0 -23 20 -23h309z" />
<glyph horiz-adv-x="819" d="M4 23q0 -23 23 -23h751q23 0 23 23v268q0 20 -23 20h-348l373 813v236q0 23 -23 22h-714q-20 0 -21 -22v-268q0 -20 21 -21h335l-397 -864v-184zM549 1409q4 0 9 3t9 7l170 258q8 12 2 23.5t-20 11.5h-189q-12 0 -20 -12q-14 -27 -29.5 -51.5t-31.5 -51.5l-66 105 q-6 10 -16 10h-187q-12 0 -18 -11t2 -24l168 -258q4 -4 9 -7t9 -3h199z" />
<glyph horiz-adv-x="751" d="M27 23q0 -23 22 -23h653q23 0 23 23v249q0 20 -23 21h-282q8 18 10 18t14 21q14 23 29.5 50.5t30.5 49.5l207 350v217q0 20 -23 21h-612q-23 0 -23 -21v-249q0 -23 23 -23h250q-10 -23 -20.5 -37t-24.5 -37q-10 -16 -19.5 -31.5t-19.5 -31.5l-215 -369v-198zM506 1092 q12 0 18 10l170 282q8 12 2 22.5t-18 10.5h-195q-12 0 -20 -12q-16 -35 -29.5 -57.5t-30.5 -57.5l-65 115q-8 12 -21 12h-190q-14 0 -20.5 -10t2.5 -23l170 -282q6 -10 18 -10h209z" />
<glyph unicode=" "  horiz-adv-x="327" />
<glyph unicode="&#x09;" horiz-adv-x="327" />
<glyph unicode="&#xa0;" horiz-adv-x="327" />
<glyph unicode="!" horiz-adv-x="512" d="M387 463q23 0 23 22l34 875q0 23 -22 22h-332q-23 0 -22 -22l34 -875q0 -23 23 -22h262zM258 -16q88 0 139.5 58t51.5 144q0 94 -55.5 150.5t-137.5 56.5q-78 0 -135.5 -56t-57.5 -151q0 -86 56.5 -144t138.5 -58z" />
<glyph unicode="&#x22;" horiz-adv-x="696" d="M59 1401q-10 0 -16 -6t-4 -17l47 -538q4 -20 23 -21h143q18 0 22 21l48 538q4 23 -21 23h-242zM397 1401q-25 0 -20 -23l47 -538q4 -20 22 -21h144q18 0 22 21l47 538q2 10 -4 16.5t-16 6.5h-242z" />
<glyph unicode="#" d="M305 0q18 0 23 20q12 90 22 181.5t21 181.5h96l-47 -358q-4 -25 20 -25h170q16 0 21 20q12 90 22.5 181.5t22.5 181.5h155q23 0 23 23v167q0 23 -23 23h-126q4 43 8 78t8 76h151q20 0 21 20v170q0 20 -21 21h-124l45 350q4 25 -23 24h-166q-18 0 -22 -20 q-10 -86 -21.5 -177t-21.5 -177h-95l43 350q4 25 -20 24h-168q-16 0 -20 -20q-10 -86 -22.5 -177t-23.5 -177h-153q-23 0 -23 -21v-170q0 -20 23 -20h129q-6 -45 -11 -79t-10 -75h-151q-20 0 -21 -23v-167q0 -23 21 -23h125l-47 -358q-4 -25 22 -25h168zM401 596 q4 43 8.5 78t8.5 76h94q-6 -45 -11 -79t-9 -75h-91z" />
<glyph unicode="$" d="M530 -168q23 0 23 21v204q123 37 191.5 132.5t68.5 230.5q0 106 -52 200.5t-186 176.5q-47 29 -74.5 50t-43 37.5t-19.5 31t-4 28.5q0 35 29 56.5t84 21.5t92 -13.5t68 -31.5q10 -6 19 -1t13 17l47 232q4 16 -12 24q-37 18 -84 32.5t-102 18.5v162q0 20 -23 21h-194 q-20 0 -21 -21v-192q-121 -47 -183.5 -141.5t-62.5 -204.5q0 -59 13.5 -109.5t43 -94.5t76 -84t113.5 -83q70 -43 102.5 -81t32.5 -81q0 -35 -27.5 -57.5t-82.5 -22.5q-59 0 -106.5 13.5t-92.5 35.5q-10 6 -19.5 1t-11.5 -15l-43 -242q-2 -6 3.5 -12t11.5 -10 q35 -16 86 -30.5t110 -18.5v-180q0 -20 23 -21h194z" />
<glyph unicode="%" horiz-adv-x="1355" d="M317 1350q-74 0 -129 -38t-91 -98.5t-54 -136.5t-18 -151q0 -68 15 -141.5t49 -134t90.5 -99.5t135.5 -39q53 0 104.5 25.5t90.5 79t62.5 133t23.5 188.5q0 59 -11.5 131t-42 134.5t-85 104.5t-140.5 42zM315 1149q41 0 41 -219q0 -119 -9 -168t-30 -49q-25 0 -38 48 t-11 173q0 119 12 167t35 48zM1051 827q-74 0 -128.5 -37.5t-91 -98t-54 -136.5t-17.5 -152q0 -68 15.5 -141.5t49 -133.5t89 -99t135.5 -39q55 0 105 25.5t90 78.5t63.5 133t23.5 189q0 59 -11 130.5t-42 134t-86 104.5t-141 42zM1049 627q25 0 34 -54.5t9 -164.5 q0 -119 -9.5 -168.5t-31.5 -49.5q-23 0 -36.5 48.5t-10.5 173.5q0 119 12.5 167t32.5 48zM403 -16q12 0 21 12l698 1323q6 12 0 21.5t-20 9.5h-150q-12 0 -20 -13l-701 -1321q-6 -12 0.5 -22t20.5 -10h151z" />
<glyph unicode="&#x26;" horiz-adv-x="1118" d="M1108 0q14 2 19.5 13.5t-3.5 21.5q-49 61 -96 120.5t-88 108.5q66 74 111 197t59 270q4 23 -23 23h-256q-23 0 -22 -21q-4 -72 -7 -133t-24 -111q-20 23 -57 77.5t-80 117.5q-2 2 -5 4t-5 6q76 53 122 101.5t70.5 93.5t32.5 89t8 89q0 72 -24.5 132.5t-68.5 105.5 t-107.5 69.5t-141.5 24.5q-90 0 -160.5 -29t-119.5 -79t-76 -116.5t-27 -142.5q0 -63 18.5 -136t69.5 -144q-88 -61 -145 -153.5t-57 -215.5q0 -86 28.5 -158.5t81.5 -127t128 -84t169 -29.5q86 0 159 21.5t128 57.5q8 -10 17 -21t24 -28q12 -14 21.5 -26.5t15.5 -20.5 q4 -2 9 -4t9 -2zM487 252q-61 0 -100 50t-39 122q0 31 9.5 59.5t23.5 48.5q49 -70 102.5 -142.5t89.5 -117.5q-33 -20 -86 -20zM516 1155q33 0 42 -36t9 -66q0 -41 -13 -80t-58 -78q-23 37 -33 71.5t-10 77.5q0 47 16 79t47 32z" />
<glyph unicode="'" horiz-adv-x="348" d="M55 1401q-27 0 -22 -23l47 -538q4 -20 22 -21h146q18 0 22 21l47 538q4 23 -22 23h-240z" />
<glyph unicode="(" horiz-adv-x="532" d="M283 1417q-4 0 -10.5 -2t-8.5 -6q-43 -57 -85 -137t-74.5 -183.5t-54 -228.5t-23.5 -272q-2 -145 18.5 -270t54 -227.5t77.5 -183.5t87 -136q2 -4 8.5 -6.5t10.5 -2.5h217q12 0 18 10.5t-2 22.5q-86 137 -147.5 329.5t-61.5 461.5q0 139 16.5 255.5t45 215t66.5 179.5 t81 148q8 12 2 22.5t-18 10.5h-217z" />
<glyph unicode=")" horiz-adv-x="532" d="M250 -238q4 0 10 2.5t8 6.5q43 57 85 137t76 182.5t54.5 227t22.5 276.5q2 150 -18.5 275.5t-54.5 227t-78 179.5t-87 133q-2 4 -8 6t-10 2h-217q-12 0 -18.5 -10t1.5 -23q86 -135 147.5 -328.5t61.5 -459.5q0 -272 -61.5 -469t-147.5 -332q-8 -12 -2 -22.5t19 -10.5h217 z" />
<glyph unicode="*" horiz-adv-x="798" d="M510 1397q-23 10 -29 -15q-20 -57 -38.5 -115.5t-39.5 -115.5l-86 233q-10 23 -30 13l-189 -109q-23 -14 -4 -33q82 -94 170 -188l-225 47q-27 4 -27 -22v-209q0 -10 9.5 -17.5t19.5 -3.5q57 14 121.5 29.5t124.5 32.5l-193 -195q-18 -18 4 -33l168 -104q23 -14 33 10 l92 244l82 -242q4 -10 12.5 -14t16.5 0l192 104q25 14 6 37q-45 47 -91 97.5t-93 99.5l244 -66q10 -2 18 4t8 17v209q0 27 -26 22q-55 -12 -112.5 -24.5t-117.5 -22.5l172 190q16 20 -6 33z" />
<glyph unicode="+" horiz-adv-x="1220" d="M514 1100q-20 0 -20 -23v-409h-396q-23 0 -22 -23v-186q0 -23 22 -23h396v-413q0 -23 20 -23h193q20 0 20 23v413h395q23 0 23 23v186q0 23 -23 23h-395v409q0 23 -20 23h-193z" />
<glyph unicode="," horiz-adv-x="512" d="M215 -193q4 0 9 2.5t7 6.5q78 129 141.5 275.5t112.5 287.5q4 10 -3 20.5t-17 8.5l-305 -19q-14 0 -19 -18q-18 -129 -55 -272.5t-84 -282.5q-4 -10 2 -20.5t19 -8.5z" />
<glyph unicode="-" horiz-adv-x="512" d="M68 748q-23 0 -23 -23v-215q0 -23 23 -23h376q23 0 23 23v215q0 23 -23 23h-376z" />
<glyph unicode="." horiz-adv-x="512" d="M276 -16q88 0 142.5 59t54.5 160q0 104 -58.5 162.5t-135.5 58.5q-39 0 -74 -16.5t-62.5 -46t-44 -70.5t-16.5 -88q0 -49 15.5 -90t42 -70t62 -44t74.5 -15z" />
<glyph unicode="/" horiz-adv-x="573" d="M131 -80q16 0 21 14l483 1434q4 12 -2 21.5t-19 9.5h-192q-16 0 -21 -15l-483 -1433q-4 -12 2 -21.5t19 -9.5h192z" />
<glyph unicode="0" d="M459 -16q86 0 160.5 41t132 126t90 216t32.5 309q0 100 -14 218t-57 219t-124 169t-216 68q-115 0 -197 -58.5t-133 -155t-74.5 -220t-23.5 -257.5q0 -115 19.5 -234.5t66.5 -217.5t129 -160.5t209 -62.5zM459 291q-20 0 -34.5 19.5t-24 63.5t-12.5 115.5t-3 178.5 q0 207 19.5 291.5t56.5 84.5q35 0 47 -93t12 -283q0 -102 -3 -174t-10 -117t-18.5 -65.5t-29.5 -20.5z" />
<glyph unicode="1" horiz-adv-x="919" d="M338 23q0 -23 20 -23h306q20 0 20 23v1290q0 23 -20 22h-279l-309 -153q-16 -8 -13 -25l50 -239q2 -10 12 -15.5t20 -1.5q47 25 94.5 46.5t94.5 45.5z" />
<glyph unicode="2" d="M797 0q23 0 22 23v270q0 20 -22 20h-334q8 10 13 15.5t9 9.5t8.5 8t14.5 14v-2q55 57 108.5 121t95.5 135.5t67.5 153.5t25.5 176q0 72 -19.5 144.5t-68.5 131t-131 94.5t-205 36q-90 0 -176 -25t-137 -55q-14 -8 -11 -23l49 -237q4 -12 13.5 -16.5t19.5 1.5 q39 23 86 40.5t101 17.5q66 0 99.5 -37t33.5 -94q0 -55 -20.5 -111.5t-58.5 -118t-90 -129t-116 -147.5h2l-143 -180v-213q0 -23 22 -23h742z" />
<glyph unicode="3" d="M37 66q-4 -16 12 -25q45 -23 114.5 -40t158.5 -17q119 0 209 36.5t150 95t91 133.5t31 150q0 115 -52.5 199t-138.5 127q74 47 115 118.5t41 166.5q0 68 -23.5 129t-71.5 108t-121 75t-171 28q-86 0 -167 -20.5t-126 -49.5q-12 -8 -10 -20l37 -232q2 -12 12 -15t20 1 q35 23 74 33t78 10q55 0 87 -30t32 -77q0 -35 -17.5 -56.5t-44 -35.5t-60.5 -19t-67 -5h-24q-20 0 -21 -21v-223q0 -23 21 -23h37q41 0 78.5 -8t67.5 -26.5t47.5 -48t17.5 -72.5q0 -55 -40 -95.5t-122 -40.5q-45 0 -94.5 12.5t-90.5 35.5q-10 6 -20 0.5t-12 -17.5z" />
<glyph unicode="4" d="M748 0q23 0 22 23v266h102q20 0 21 20v244q0 23 -21 22h-102v738q0 23 -22 22h-295q-12 0 -21 -12l-424 -797v-217q0 -20 21 -20h428v-266q0 -23 22 -23h269zM319 575q29 59 51.5 101.5t51.5 99.5q10 18 18.5 35.5t18.5 38.5q-2 -20 -2 -41v-35v-199h-138z" />
<glyph unicode="5" d="M788 1313q0 23 -22 22h-565q-18 0 -23 -20l-67 -670q-2 -10 7 -18.5t19 -5.5q20 4 41 4h43q49 0 94 -8.5t80 -30t56.5 -57t21.5 -89.5q0 -72 -44 -116.5t-130 -44.5q-51 0 -96 11t-80 27q-10 4 -20.5 0t-12.5 -16l-41 -242q-4 -16 12 -24q41 -20 113 -35.5t150 -15.5 q119 0 212 38.5t155.5 105.5t95 155t32.5 186q0 201 -119 313q-31 29 -67.5 48.5t-72.5 31.5t-66.5 17.5t-51.5 5.5h-12q4 41 8 71.5t8 67.5h320q23 0 22 23v266z" />
<glyph unicode="6" d="M770 1329q0 20 -20 21q-4 0 -9.5 -1t-11.5 -1q-23 -2 -56.5 -4.5t-72.5 -8.5q-82 -14 -172 -57t-158 -111q-49 -47 -92 -108.5t-74.5 -138t-50 -171t-18.5 -206.5q0 -129 30.5 -233.5t87 -176.5t137.5 -110.5t181 -38.5q106 0 184 44t129.5 113.5t75 156.5t23.5 173 q0 96 -23.5 174t-65.5 133.5t-100.5 85t-130.5 29.5q-88 0 -155 -51q29 78 85 132t146 73q31 6 59.5 9t53.5 5q18 0 18 20v248zM467 246q-39 0 -58.5 65.5t-19.5 151.5q0 51 4 80.5t8 40.5q20 49 60 49q20 0 35.5 -15.5t23.5 -39t12.5 -50t4.5 -51.5q0 -43 -1 -85 t-8.5 -73.5t-21.5 -52t-39 -20.5z" />
<glyph unicode="7" d="M94 1335q-23 0 -22 -22v-271q0 -23 22 -22h398l-379 -989q-4 -12 2 -21.5t18 -9.5h297q16 0 21 14l403 1092v207q0 23 -23 22h-737z" />
<glyph unicode="8" d="M473 1350q-86 0 -160.5 -26t-131 -73t-89.5 -115.5t-33 -154.5q0 -72 31 -145.5t107 -133.5q-80 -55 -125 -137t-45 -198q0 -92 32.5 -164t90 -121t134 -73.5t165.5 -24.5q86 0 164.5 25.5t138 77.5t94.5 128t35 178q0 111 -48.5 196t-127.5 136q45 33 73.5 72t45 75.5 t22.5 71.5t6 62q0 84 -32 148.5t-84 107.5t-120.5 65.5t-142.5 22.5zM459 229q-47 0 -69.5 51.5t-22.5 116.5q0 61 19.5 103.5t47.5 66.5q39 -20 75 -67t36 -119q0 -57 -19.5 -104.5t-66.5 -47.5zM469 1106q39 0 52.5 -41t13.5 -88q0 -41 -13.5 -81t-36.5 -56 q-92 47 -92 147q0 41 16.5 80t59.5 39z" />
<glyph unicode="9" d="M145 6q0 -23 21 -22h27h51q27 0 51 4q104 16 191 55t151 100q47 45 90 108.5t76 144.5t52 179.5t19 217.5q0 127 -26.5 229t-78.5 175t-128 113t-174 40q-106 0 -187 -43t-135.5 -113t-82 -155t-27.5 -169q0 -94 26.5 -169.5t72.5 -129t107.5 -82t129.5 -28.5 q43 0 75.5 8t61.5 25q-16 -47 -39 -83t-47 -59q-29 -27 -63.5 -42t-67.5 -19q-33 -6 -58.5 -8t-66.5 -2q-20 0 -21 -23v-252zM451 1087q31 0 50 -52t19 -138q0 -74 -2 -105.5t-8 -48.5q-4 -10 -17.5 -21t-35.5 -11q-20 0 -33.5 16t-23 42t-14.5 58.5t-5 65.5q-4 88 15.5 141 t54.5 53z" />
<glyph unicode=":" horiz-adv-x="512" d="M276 602q88 0 139.5 58.5t51.5 150.5q0 98 -55.5 153.5t-132.5 55.5q-39 0 -74 -16.5t-60.5 -44t-41 -66.5t-15.5 -82q0 -92 55 -150.5t133 -58.5zM274 -16q88 0 139.5 58t51.5 151q0 98 -55.5 154t-133.5 56q-39 0 -73.5 -16t-60 -45t-41 -67.5t-15.5 -81.5 q0 -90 55 -149.5t133 -59.5z" />
<glyph unicode=";" horiz-adv-x="512" d="M207 -227q4 0 9 2t7 6q78 129 141.5 275.5t112.5 287.5q4 10 -3 19.5t-17 9.5l-295 -19q-16 0 -21 -18q-16 -129 -53 -272.5t-84 -282.5q-4 -10 2 -20.5t19 -8.5zM279 602q90 0 140 58.5t50 150.5q0 98 -54.5 153.5t-133.5 55.5q-39 0 -74 -16.5t-60.5 -44t-41 -66.5 t-15.5 -82q0 -92 55.5 -150.5t133.5 -58.5z" />
<glyph unicode="&#x3c;" horiz-adv-x="1220" d="M104 483q0 -4 4.5 -11t8.5 -9l968 -461q10 -4 20.5 1t10.5 20v229q0 16 -14 20q-156 68 -310.5 136.5t-312.5 138.5l623 278q14 4 14 21v231q0 14 -10 19.5t-21 1.5l-968 -461q-4 -2 -8.5 -8t-4.5 -11v-135z" />
<glyph unicode="=" horiz-adv-x="1220" d="M1122 621q23 0 23 22v186q0 23 -23 23h-1024q-23 0 -22 -23v-186q0 -23 22 -22h1024zM1122 252q23 0 23 22v187q0 23 -23 22h-1024q-23 0 -22 -22v-187q0 -23 22 -22h1024z" />
<glyph unicode="&#x3e;" horiz-adv-x="1220" d="M1116 651q0 16 -14 21l-969 426q-10 4 -19.5 -1t-9.5 -20v-225q0 -16 15 -21q174 -68 349 -138t349 -140l-698 -285q-14 -4 -15 -20v-225q0 -14 9.5 -19.5t19.5 -1.5l969 426q14 4 14 21v202z" />
<glyph unicode="?" horiz-adv-x="706" d="M428 440q23 0 23 23q0 10 1 21.5t1 23.5q4 53 26.5 99t59.5 100v-2q55 76 102 164.5t47 195.5q0 53 -16.5 112.5t-59.5 110.5t-117.5 84t-189.5 33q-80 0 -150.5 -20.5t-107.5 -45.5q-12 -8 -10 -20l47 -238q2 -10 13.5 -15t21.5 3q25 16 55.5 22.5t56.5 6.5 q51 0 76 -25.5t25 -60.5q0 -43 -16.5 -84t-51.5 -94q-53 -82 -91 -162t-28 -172l5 -37q0 -23 22 -23h256zM307 -16q88 0 139.5 58t51.5 144q0 92 -55.5 150.5t-137.5 56.5q-76 0 -133 -56t-57 -151q0 -86 54 -144t138 -58z" />
<glyph unicode="@" horiz-adv-x="1300" d="M967 588q0 59 -9.5 122.5t-41 116t-94 86t-169.5 33.5q-16 0 -29.5 -1t-27.5 -3q-12 0 -16 -14l-31 -172q-4 -23 18 -23q41 0 77 -15.5t40 -39.5q-66 -4 -131.5 -22.5t-116.5 -55.5t-82.5 -93t-31.5 -136q0 -55 17 -102.5t48 -82t73 -54t91 -19.5q47 0 90 17t76 46 l12 -65q0 -18 16 -15l175 25q94 18 156.5 57t99 103.5t52 157.5t15.5 220q0 104 -30.5 204t-94 177.5t-161 124.5t-230.5 47q-156 0 -279.5 -68.5t-210.5 -179t-133.5 -252t-46.5 -286.5q0 -154 46.5 -271.5t122 -196.5t169.5 -120t193 -41q90 0 170 18.5t166 65.5 q16 8 10 27l-33 90q-4 10 -13 13t-18 -3q-59 -35 -123.5 -52t-130.5 -17q-82 0 -154.5 29.5t-126.5 90t-86 152.5t-32 217q0 147 42 266t109.5 204t154.5 131t179 46q100 0 173 -35.5t119 -95t67.5 -139.5t21.5 -168q0 -172 -35.5 -256t-80.5 -94v35v266zM692 385 q0 -8 -1 -15.5t-1 -11.5q-10 -16 -26.5 -25t-30.5 -9q-16 0 -32.5 17t-16.5 58q0 47 33.5 67.5t74.5 25.5v-107z" />
<glyph unicode="A" horiz-adv-x="958" d="M559 264l41 -246q4 -18 23 -18h297q27 0 22 27l-246 1337q0 18 -20 18h-373q-18 0 -22 -18l-285 -1337q-4 -10 4 -18.5t18 -8.5h297q18 0 23 18q10 59 21.5 122t21.5 124h178zM418 545q10 59 17 112.5t18 114.5q4 27 10 64.5t12 78.5q2 8 1 11.5t1 11.5q4 -20 5 -25.5 t1 -9.5v-8t4 -31q4 -27 7.5 -50t5.5 -42q6 -57 14 -114.5t16 -112.5h-112z" />
<glyph unicode="B" horiz-adv-x="1048" d="M109 27q0 -18 16 -23q51 -8 119.5 -12t144.5 -4q197 0 312.5 39t181.5 110v-2q51 53 77.5 121t26.5 158q0 100 -52 186t-157 129q88 53 127 131t39 160q0 76 -26.5 145.5t-88.5 122.5v-2q-82 68 -178 85.5t-194 17.5q-96 0 -181.5 -6.5t-150.5 -20.5q-16 -4 -16 -23 v-1312zM457 569h30q55 0 97.5 -38.5t42.5 -112.5q0 -78 -44 -115t-98 -37q-8 0 -13 -1t-15 1v303zM457 1116q10 2 18 2h25q51 0 75.5 -38t24.5 -95q0 -63 -31.5 -104t-83.5 -41h-28v276z" />
<glyph unicode="C" horiz-adv-x="827" d="M776 299q0 10 -9 17.5t-19 2.5q-23 -6 -56 -11t-57 -5q-109 0 -176.5 91t-67.5 290q0 104 19.5 180t52.5 124t78 70.5t98 22.5q35 0 59.5 -6t44.5 -16q10 -4 20.5 1t12.5 15l47 258q2 4 -2 10.5t-8 10.5q-23 14 -74 27.5t-127 13.5q-109 0 -214 -42t-189 -130 t-135 -225.5t-51 -327.5q0 -135 30.5 -259t98 -217.5t172 -149.5t251.5 -56q72 0 127.5 10t83.5 22q14 6 15 21z" />
<glyph unicode="D" horiz-adv-x="1046" d="M109 27q0 -18 20 -23l102.5 -10t133.5 -6q141 0 254.5 35.5t185.5 93.5q102 82 153.5 235.5t51.5 347.5q0 193 -42 331t-137 224h3q-74 66 -173.5 100t-240.5 34q-88 0 -165 -8.5t-128 -18.5q-18 -4 -18 -23v-1312zM459 1100q10 4 9 2t11 -2q88 0 129 -104.5t41 -280.5 q0 -119 -13 -201t-37 -133t-54.5 -74.5t-67.5 -23.5h-18v817z" />
<glyph unicode="E" horiz-adv-x="843" d="M748 844q0 23 -21 22h-270v207h243q23 0 23 21v266q0 23 -23 22h-573q-23 0 -23 -22v-1337q0 -23 23 -23h655q23 0 23 23v266q0 20 -23 20h-325v258h270q20 0 21 23v254z" />
<glyph unicode="F" horiz-adv-x="843" d="M104 23q0 -23 23 -23h307q23 0 23 23v505h305q23 0 22 23v254q0 20 -22 20h-305v248h282q23 0 23 21v266q0 23 -23 22h-612q-23 0 -23 -22v-1337z" />
<glyph unicode="G" horiz-adv-x="999" d="M928 797q0 20 -23 20h-377q-20 0 -20 -20v-250q0 -23 20 -23h76v-233q-4 -2 -6 -2v0q0 2 -6 2q-35 0 -69 20.5t-61.5 64.5t-45 114.5t-17.5 171.5q0 113 20.5 191.5t57.5 127.5t89 71.5t116 22.5q82 0 143 -28q10 -4 19.5 0t11.5 16l49 264q4 16 -10 23 q-35 16 -95.5 30.5t-146.5 14.5q-117 0 -225.5 -46t-194.5 -135.5t-139 -221.5t-57 -304q-2 -80 9 -162t35.5 -155.5t59.5 -137t80 -106.5q68 -66 165 -102.5t226 -36.5q39 0 83 4t85 11t76 16.5t57 17.5q14 4 15 20v740z" />
<glyph unicode="H" horiz-adv-x="1101" d="M129 1382q-20 0 -20 -22v-1337q0 -23 20 -23h309q20 0 21 23v509h184v-509q0 -23 21 -23h309q20 0 20 23v1337q0 23 -20 22h-309q-20 0 -21 -22v-498h-184v498q0 23 -21 22h-309z" />
<glyph unicode="I" horiz-adv-x="550" d="M121 1382q-20 0 -21 -22v-1337q0 -23 21 -23h309q20 0 21 23v1337q0 23 -21 22h-309z" />
<glyph unicode="J" horiz-adv-x="634" d="M199 455q0 -51 -9.5 -83t-23.5 -48.5t-32.5 -22.5t-39.5 -6q-45 0 -82 12q-10 4 -18 -2t-10 -16l-25 -258q0 -16 12 -23q25 -10 66 -17t88 -7q74 0 149.5 14t137 63.5t99.5 146.5t38 263v889q0 23 -21 22h-307q-23 0 -22 -22v-905z" />
<glyph unicode="K" horiz-adv-x="987" d="M109 23q0 -23 22 -23h305q23 0 23 23v405q6 14 12 25.5t12 23.5l146 -502q2 -6 9 -11t15 -3l334 39q12 2 17.5 11t1.5 20q-70 186 -142.5 369.5t-142.5 369.5l283 580q6 12 -0.5 22t-20.5 10h-336q-16 0 -20 -14l-148 -410q-4 -10 -9 -23t-9 -28l-2 453q0 23 -23 22h-305 q-23 0 -22 -22v-1337z" />
<glyph unicode="L" horiz-adv-x="808" d="M104 23q0 -23 23 -23h635q23 0 22 23v260q0 20 -22 20h-305v1057q0 23 -23 22h-307q-23 0 -23 -22v-1337z" />
<glyph unicode="M" horiz-adv-x="1337" d="M956 20q0 -20 21 -20h272q10 0 16.5 7t6.5 18l-84 1337q0 20 -23 20h-319q-16 0 -21 -18q-23 -104 -43 -214t-43 -214q-16 -88 -32.5 -171t-28.5 -163q-8 43 -13.5 71.5t-11.5 53.5t-11 52.5t-13 66.5l-19 90l-86 428q-4 18 -22 18h-322q-20 0 -20 -20l-105 -1337 q-4 -25 23 -25h260q23 0 22 23q4 102 10.5 208.5t10.5 208.5q2 20 2 41q0 23 2 45q2 29 4 60.5t4 62.5q8 -53 13.5 -77.5t9.5 -40t8 -29t10 -43.5l90 -414q4 -16 23 -16h221q18 0 23 16l96 414q8 31 17 77t20 101q0 -53 1 -75.5t2 -36t3 -29t4 -54.5z" />
<glyph unicode="N" horiz-adv-x="1101" d="M397 0q23 0 23 23v229q0 119 -2 229.5t-6 198.5q10 -37 18 -61.5t17.5 -47t19.5 -47t25 -59.5l180 -451q4 -14 20 -14h281q20 0 20 23v1337q0 23 -20 22h-268q-23 0 -23 -22v-217q0 -125 5 -247t13 -220q-23 57 -44 113.5t-38 97.5l-188 481q-4 14 -20 14h-281 q-20 0 -20 -22v-1337q0 -23 20 -23h268z" />
<glyph unicode="O" horiz-adv-x="1015" d="M518 -16q106 0 193.5 42t150 131t96 228t33.5 336q0 98 -17.5 216t-67.5 221.5t-139 172t-232 68.5q-127 0 -219.5 -62.5t-152 -162t-87 -225.5t-27.5 -255q0 -127 23.5 -254t78 -228t144.5 -164.5t223 -63.5zM522 293q-57 0 -84.5 106.5t-25.5 298.5q0 84 6 156 t20.5 124t35 80.5t48.5 28.5q29 0 48.5 -28.5t31.5 -79.5t17.5 -122t5.5 -152q0 -197 -25 -304.5t-78 -107.5z" />
<glyph unicode="P" horiz-adv-x="987" d="M88 23q0 -23 21 -23h305q23 0 22 23v454h25q41 0 87 7.5t92 22.5t88 38.5t77 56.5q61 61 97 148.5t36 210.5q0 86 -32 171t-97 144q-76 66 -177.5 89.5t-228.5 23.5q-82 0 -160.5 -7.5t-138.5 -19.5q-16 -4 -16 -23v-1316zM436 1096q8 2 17 2h18q61 0 91 -46t30 -118 q0 -33 -7 -62.5t-23.5 -53t-44.5 -38t-66 -14.5h-15v330z" />
<glyph unicode="Q" horiz-adv-x="1015" d="M510 293q-29 0 -47.5 25.5t-30.5 64.5t-19 87t-10.5 93t-3.5 82v53q0 25 2 88.5t13.5 131t33 118.5t62.5 51q39 0 60.5 -51t30.5 -116.5t10 -128t1 -86.5q0 -23 -1 -90.5t-10 -139.5t-30.5 -127t-60.5 -55zM223 -84h29q8 4 22.5 12.5t29.5 16.5t30.5 14t25.5 6 q29 0 41.5 -31.5t21.5 -81t22.5 -104.5t42 -104.5t79.5 -81t140 -31.5q72 0 139 33t123 78l2 24l-113 125l-27 2q-20 -14 -47.5 -32.5t-54.5 -18.5q-23 0 -34 11t-17 27.5t-8 37t-4 37.5l2 -2l-4 41v-5l-6.5 32.5t-7.5 23t-11 21.5t-14 32q115 31 184.5 109.5t107 182 t50 218.5t12.5 213q0 111 -20.5 229.5t-71.5 219t-140.5 165t-224.5 64.5t-228 -67.5t-150.5 -172t-82 -228.5t-24.5 -237q0 -74 7 -150.5t24.5 -151.5t49.5 -144.5t81 -126.5q-23 -10 -44.5 -23.5t-41.5 -27.5l-2 -27z" />
<glyph unicode="R" horiz-adv-x="1017" d="M109 23q0 -23 20 -23h307q20 0 21 23v489h8q41 0 64.5 -35t37.5 -141q6 -53 15.5 -110.5t18.5 -108.5t18.5 -90t15.5 -54q8 -12 20 -12l322 39q12 2 18 12.5t0 20.5q-10 18 -20 59t-22.5 93.5t-23.5 108.5t-20 105q-31 178 -131 246q94 57 136 146.5t42 187.5 q0 92 -26.5 167t-91.5 134q-37 31 -83 52.5t-97.5 33.5t-106.5 17.5t-109 5.5q-86 0 -167.5 -7.5t-147.5 -19.5q-18 -4 -18 -23v-1316zM457 1104q6 2 16 2h19q59 -2 84.5 -45t25.5 -109q0 -63 -30.5 -111t-96.5 -48h-18v311z" />
<glyph unicode="S" horiz-adv-x="837" d="M35 66q-4 -16 12 -25q37 -20 113 -36.5t168 -16.5q111 0 200.5 31.5t154.5 89t100.5 139.5t35.5 180q0 104 -60.5 212t-197.5 189q-90 53 -129 90t-39 72q0 37 33 64.5t98 27.5q55 0 96.5 -12t67.5 -29q10 -6 20.5 -2t12.5 17l45 264q2 6 -3 12t-9 10q-33 20 -95.5 36 t-134.5 16q-123 0 -212 -35t-147.5 -94.5t-87 -138t-28.5 -166.5q0 -39 9.5 -86.5t37 -98.5t79.5 -104.5t136 -104.5q82 -49 122 -83.5t40 -88.5q0 -41 -35 -69.5t-110 -28.5q-53 0 -117 14.5t-105 36.5q-10 6 -20 0t-12 -18z" />
<glyph unicode="T" horiz-adv-x="839" d="M244 23q0 -23 20 -23h309q20 0 21 23v1030h213q23 0 22 22v285q0 23 -22 22h-774q-23 0 -23 -22v-285q0 -23 23 -22h211v-1030z" />
<glyph unicode="U" horiz-adv-x="1060" d="M119 1382q-20 0 -21 -22v-799q0 -131 21.5 -237.5t72 -182t134.5 -116.5t206 -41q223 0 327 152.5t104 420.5v803q0 23 -21 22h-309q-20 0 -21 -22v-858q0 -63 -6 -103.5t-17 -64t-26.5 -31.5t-32.5 -8q-33 0 -57 44t-24 163v858q0 23 -21 22h-309z" />
<glyph unicode="V" horiz-adv-x="952" d="M649 0q18 0 23 18l303 1338q4 10 -3 18t-18 8h-340q-18 0 -22 -20q-8 -61 -17.5 -132t-19.5 -142.5t-20.5 -142.5t-18.5 -132q-8 -66 -15 -131.5t-16 -130.5q-6 51 -10 73.5t-6 39t-6 37t-10 69.5q-2 8 -3 19.5t-4 19.5l-77 555q-4 18 -23 18h-342q-10 0 -17 -8t-3 -18 l295 -1338q4 -18 22 -18h348z" />
<glyph unicode="W" horiz-adv-x="1413" d="M563 0q18 0 23 18l71 344q14 63 24.5 136t25.5 151q10 -80 19 -153.5t19 -133.5l60 -344q0 -18 20 -18h322q18 0 22 18l224 1338q4 27 -21 26h-301q-20 0 -20 -20l-47 -483q-4 -39 -6.5 -79t-6.5 -75q-2 -23 -5 -50.5t-5 -49.5q-8 63 -11 90.5t-6 46t-7.5 41t-12.5 78.5 l-74 483q0 18 -20 18h-246q-18 0 -22 -18l-84 -483q-4 -29 -9.5 -56.5t-9.5 -54.5q-6 -45 -13 -89t-15 -91q-4 27 -5 34l-2 7l2 -1q3 -1 -2 36q-4 55 -9 107t-9 106l-43 483q0 20 -23 20h-319q-25 0 -21 -26l216 -1338q4 -18 22 -18h305z" />
<glyph unicode="X" horiz-adv-x="847" d="M858 0q12 0 18.5 9t2.5 22l-258 657l243 664q4 12 -2 21t-16 9h-307q-16 0 -21 -18l-51 -219q-6 -29 -11 -54.5t-12 -54.5l-6 -24q-8 27 -11 41t-6 25.5t-7 25.5t-11 41l-59 221q-2 6 -9 11t-11 5h-322q-10 0 -16 -9t-2 -21q57 -160 112.5 -322t112.5 -323l-236 -676 q-4 -12 2.5 -21.5t18.5 -9.5h301q18 0 22 18q10 53 24.5 104.5t27.5 104.5v-2q10 39 18 76t19 78q8 -31 13 -47.5t10 -28.5t10 -27.5t16 -46.5h-2l67 -213q4 -16 21 -16h317z" />
<glyph unicode="Y" horiz-adv-x="925" d="M621 0q20 0 20 23v497l295 832q4 12 -2 21t-19 9h-317q-18 0 -23 -18q-14 -72 -30.5 -153t-32.5 -152q-10 -39 -16.5 -78t-12.5 -80l-12 52.5t-7 30.5t-7 27.5t-11 43.5l-77 311q-4 16 -23 16h-328q-12 0 -18 -9t-2 -21q74 -211 146.5 -422t146.5 -422v-485q0 -23 20 -23 h310z" />
<glyph unicode="Z" horiz-adv-x="819" d="M4 23q0 -23 23 -23h751q23 0 23 23v268q0 20 -23 20h-348l373 813v236q0 23 -23 22h-714q-20 0 -21 -22v-268q0 -20 21 -21h335l-397 -864v-184z" />
<glyph unicode="[" horiz-adv-x="532" d="M485 -223q23 0 23 22v195q0 23 -23 22h-147v1151h147q23 0 23 23v194q0 20 -23 21h-397q-23 0 -22 -21v-1585q0 -23 22 -22h397z" />
<glyph unicode="\" horiz-adv-x="573" d="M635 -80q12 0 18 9.5t2 21.5l-483 1433q-4 14 -20 15h-193q-12 0 -18.5 -9.5t-1.5 -21.5l483 -1434q4 -14 20 -14h193z" />
<glyph unicode="]" horiz-adv-x="532" d="M47 1405q-23 0 -22 -21v-194q0 -23 22 -23h148v-1151h-148q-23 0 -22 -22v-195q0 -23 22 -22h397q23 0 23 22v1585q0 20 -23 21h-397z" />
<glyph unicode="^" horiz-adv-x="1220" d="M1130 342q14 0 19.5 9t1.5 20l-426 950q-4 14 -18 14h-193q-14 0 -18 -14l-426 -950q-4 -10 1 -19.5t19 -9.5h225q14 0 19 14q68 164 136.5 329t137.5 331l275 -660q4 -14 20 -14h227z" />
<glyph unicode="_" horiz-adv-x="1024" d="M16 -410q-23 0 -22 -22v-100q0 -20 22 -21h992q23 0 22 21v100q0 23 -22 22h-992z" />
<glyph unicode="`" horiz-adv-x="614" d="M59 1417q-16 0 -21 -10t3 -23l197 -282q4 -10 18 -10h186q14 0 20.5 9t0.5 21l-129 281q-4 14 -21 14h-254z" />
<glyph unicode="a" horiz-adv-x="915" d="M850 584q0 74 -11.5 154.5t-52.5 146t-118.5 108.5t-212.5 43q-20 0 -38 -1t-36 -3q-16 0 -21 -18l-38 -219q-4 -10 4 -18.5t18 -8.5q25 0 50.5 -5t47 -14.5t36 -22.5t16.5 -28q-84 -4 -166 -27.5t-147.5 -70.5t-105.5 -118.5t-40 -172.5q0 -70 21.5 -129t60.5 -103 t92 -68.5t117 -24.5q57 0 112.5 21.5t96.5 57.5l14 -83q0 -23 22 -19l275 39q10 2 16 9t4 18q-10 51 -13 105t-3 114v338zM504 326q0 -20 -4 -33q-10 -23 -32 -33t-40 -10t-39.5 21.5t-21.5 72.5q0 59 42 87t95 32v-137z" />
<glyph unicode="b" horiz-adv-x="958" d="M76 23l30 -21l164 -2l88 104l22 -18q21 -18 52 -42t67 -42t64 -18q160 0 255 147.5t95 413.5q0 94 -16 182t-52 156.5t-94.5 110.5t-140.5 42q-63 0 -105 -18.5t-75 -52.5l-4 432q0 20 -23 20h-305q-23 0 -22 -20v-1374zM426 645q0 10 3 25.5t7 23.5q8 16 20.5 28.5 t24.5 12.5q84 0 84 -217q0 -123 -20.5 -181t-63.5 -58q-27 0 -45 38q-10 20 -10 56v272z" />
<glyph unicode="c" horiz-adv-x="679" d="M643 279q-2 10 -12 15t-21 1q-18 -6 -37.5 -10t-44.5 -4q-74 0 -116.5 61t-42.5 168q0 111 46 171t120 60q27 0 48 -5t38 -9q23 -6 26 18l37 238q0 16 -14 25q-18 6 -59.5 15t-94.5 9q-111 0 -202 -38t-156.5 -107.5t-101.5 -167.5t-36 -221q0 -250 122 -380t331 -130 q59 0 108.5 10t67.5 18q14 6 15 21z" />
<glyph unicode="d" horiz-adv-x="927" d="M270 1180q25 -20 50.5 -40t50.5 -40q45 -39 82 -99q-41 6 -80 -2q-59 -12 -117.5 -48t-105 -96t-75 -147t-28.5 -202q0 -240 105.5 -381t308.5 -141q61 0 136 22.5t138.5 84t106.5 172t43 286.5q0 117 -16.5 229.5t-69.5 212.5q-39 74 -82 140.5t-96 115.5h2l-91 84 q-47 43 -92 71t-84 50q-4 4 -12 2t-12 -6l-174 -154q-23 -18 2 -32q27 -16 56 -40t54 -42zM467 258q-35 0 -54.5 67.5t-19.5 186.5q0 37 3 81t11.5 83t22.5 65.5t39 26.5q18 0 30.5 -21.5t20.5 -48.5q12 -37 13.5 -87t1.5 -109q0 -49 -3.5 -94.5t-10.5 -78t-20.5 -52 t-33.5 -19.5z" />
<glyph unicode="e" d="M842 360q18 0 22 19q4 23 7 59.5t3 102.5q0 256 -103 375.5t-273 119.5q-92 0 -172 -36.5t-139.5 -107.5t-94.5 -173.5t-35 -231.5q0 -244 119 -371.5t340 -127.5q35 0 71 3t68 7q10 2 16.5 9t4.5 18l-37 221q-4 23 -25 18q-10 -2 -22 -2h-21q-68 0 -112.5 25.5 t-57.5 72.5h441zM397 618q0 27 5.5 53.5t15.5 49t25.5 37t37.5 14.5q20 0 34.5 -13.5t23 -36t12.5 -50t4 -54.5h-158z" />
<glyph unicode="f" horiz-adv-x="636" d="M453 -381q23 0 22 23v1120h143q20 0 21 22v215q0 20 -21 21h-143v16q0 41 21.5 73t68.5 32q20 0 39 -2t31 -6q10 -4 19.5 1t11.5 15l30 240q4 18 -16 22q-31 10 -75 16.5t-101 6.5q-86 0 -152.5 -26t-113.5 -73q-66 -63 -90.5 -140t-24.5 -167v-8h-113q-23 0 -22 -21 v-215q0 -23 22 -22h113v-1120q0 -23 22 -23h308z" />
<glyph unicode="g" horiz-adv-x="704" d="M418 358q39 8 85 29t85 60.5t64.5 103t25.5 156.5q0 39 -12.5 78.5t-32.5 72.5l55 -6q25 -4 25 22v144q0 23 -23 22h-241q-23 8 -41.5 10.5t-40.5 2.5q-55 0 -114.5 -21.5t-109 -64.5t-81 -109.5t-31.5 -157.5q0 -84 44 -148.5t87 -107.5q-10 -4 -15.5 -8t-9.5 -6 q-23 -14 -40 -25.5t-29.5 -28t-18.5 -39t-6 -58.5q0 -31 8 -69t30.5 -77t63.5 -80t109 -78q51 -29 73.5 -46t22.5 -40q0 -43 -67 -43q-47 0 -95.5 16.5t-76.5 33.5q-10 4 -20.5 1t-14.5 -16l-49 -223q-4 -12 8 -20q18 -14 47 -25.5t62.5 -20t69.5 -12.5t69 -4 q178 0 283.5 88t105.5 250q0 39 -9.5 80t-33 81t-63.5 79t-99 73q-53 31 -76.5 48.5t-23.5 33.5t11 30.5t40 18.5zM367 852q12 0 19 -13.5t12 -35t6.5 -48t1.5 -53.5q0 -57 -6.5 -103t-32.5 -46q-23 0 -32 41t-9 108q0 18 1 44t5 49.5t12.5 40t22.5 16.5z" />
<glyph unicode="h" horiz-adv-x="985" d="M78 23q0 -23 20 -23h310q20 0 20 23v595q0 12 4 34t8 32h-2q10 31 26.5 41t33.5 10q37 0 48 -41t11 -94v-379q0 -31 6 -74t14.5 -80.5t14.5 -64.5l6 -27q2 -6 8 -11t15 -3l309 39q23 4 16 29q-2 4 -10 32.5t-17.5 75.5t-9.5 84v369q0 98 -12 180t-45 141.5t-87 92 t-136 32.5q-39 0 -77 -10t-69 -27q-10 -8 -24.5 -20t-26.5 -23l-4 441q0 20 -20 20h-310q-20 0 -20 -20v-1374z" />
<glyph unicode="i" horiz-adv-x="489" d="M406 0q20 0 20 23v976q0 20 -20 21h-310q-20 0 -20 -21v-976q0 -23 20 -23h310zM246 1096q82 0 139 57t57 147q-2 96 -58 151.5t-136 55.5q-78 0 -136.5 -56t-58.5 -151q0 -90 56.5 -147t136.5 -57z" />
<glyph unicode="j" horiz-adv-x="491" d="M-82 -377q4 -20 21 -20q82 0 174 21.5t151 62.5q70 49 112 144t42 265v903q0 20 -23 21h-307q-20 0 -20 -21v-852q0 -96 -7.5 -147t-29.5 -74q-20 -18 -51 -25t-62 -12q-10 -2 -16 -8t-4 -16zM240 1096q82 0 139 57t57 147q-2 96 -58 151.5t-134 55.5q-80 0 -138.5 -55 t-58.5 -152q0 -90 56.5 -147t136.5 -57z" />
<glyph unicode="k" horiz-adv-x="897" d="M426 1397q0 20 -23 20h-305q-23 0 -22 -20v-1374q0 -23 22 -23h305q23 0 23 23v286q4 8 6 13.5t6 13.5l111 -361q2 -6 9 -11t15 -3l322 39q12 2 17.5 11t0.5 20q-57 139 -116.5 278.5t-116.5 278.5l225 401q6 12 0 21.5t-20 9.5h-332q-16 0 -21 -12q-23 -66 -48 -135.5 t-48 -135.5q-2 -2 -3 -6t-3 -8z" />
<glyph unicode="l" horiz-adv-x="567" d="M592 262q2 10 -4 16.5t-17 8.5q-31 4 -60.5 10t-49.5 27q-23 23 -30 74t-7 147v852q0 20 -23 20h-307q-23 0 -22 -20v-905q0 -168 42 -263.5t111 -144.5q59 -41 151.5 -62.5t174.5 -21.5q16 0 20 20z" />
<glyph unicode="m" horiz-adv-x="1445" d="M84 23q0 -23 22 -23h306q23 0 22 23v610q0 45 10 61v-2q18 47 58 47q16 0 25.5 -11t14.5 -29.5t6 -39t1 -38.5v-598q0 -23 22 -23h306q23 0 22 23v612q0 41 4 53q23 51 62 51q33 0 41 -44t8 -113v-361q0 -31 6 -74t13 -80.5t13 -64.5l7 -27q2 -6 9 -11t15 -3l305 39 q23 4 19 29q-2 4 -10.5 32.5t-18.5 75.5t-10 84v408q0 92 -14.5 166.5t-47 128t-87 83t-132.5 29.5q-41 0 -78.5 -8t-68.5 -27q-23 -14 -46.5 -33.5t-41.5 -39.5q-31 47 -86 77.5t-137 30.5q-68 0 -124.5 -27.5t-99.5 -68.5l-14 100q-2 10 -10 16.5t-19 2.5l-266 -101 q-14 -8 -14 -20q2 -20 3 -35.5t1 -32.5q2 -45 3 -86t1 -98v-663z" />
<glyph unicode="n" horiz-adv-x="985" d="M72 23q0 -23 20 -23h309q20 0 21 23v585q0 57 14 82v-2q23 47 58 47t46 -33.5t11 -76.5v-41t1 -101.5t1 -132.5v-129q0 -31 9 -74t20.5 -80.5t20.5 -65.5l9 -28q4 -4 9.5 -9t13.5 -3l307 39q12 2 18.5 12.5t0.5 20.5l-9 19q-10 20 -20 47.5t-19.5 60.5t-9.5 61v414 q0 84 -14.5 156.5t-48 127t-90 86t-138.5 31.5q-68 0 -126 -24.5t-101 -69.5l-14 98q-2 10 -10.5 16.5t-18.5 2.5l-264 -101q-14 -8 -15 -20q2 -20 3.5 -35.5t1.5 -32.5q2 -45 3 -86t1 -98v-663z" />
<glyph unicode="o" horiz-adv-x="925" d="M467 -16q57 0 129 21.5t135.5 79.5t106.5 161.5t43 267.5q0 115 -27 211t-79 164.5t-130 107.5t-178 39q-82 0 -158 -31.5t-134 -97t-94 -165t-36 -236.5q0 -240 107.5 -381t314.5 -141zM467 258q-41 0 -58.5 68.5t-17.5 185.5q0 45 3 89t11.5 80t22.5 58.5t37 22.5 q18 0 31.5 -22.5t20.5 -58.5t10 -80t3 -89q0 -47 -3 -93t-10 -82t-19.5 -57.5t-30.5 -21.5z" />
<glyph unicode="p" horiz-adv-x="958" d="M76 -358q0 -23 22 -23h305q23 0 23 23v393q25 -20 61.5 -35.5t77.5 -15.5q68 0 131.5 32.5t110.5 98t75.5 164t28.5 231.5q0 96 -17 190.5t-56 169t-102.5 120.5t-155.5 46q-63 0 -110.5 -22.5t-80.5 -63.5l-12 90q-2 10 -11.5 16.5t-19.5 2.5l-264 -101q-6 -2 -10 -9 t-4 -11q2 -20 2 -41q0 -20 2 -37q2 -43 3 -81t1 -93v-1044zM426 645q0 37 8 51q16 39 49 39q35 0 57.5 -52t22.5 -175q0 -47 -5 -88t-15.5 -73t-25.5 -50t-38 -18q-10 0 -20 8t-21 18q-12 25 -12 72v268z" />
<glyph unicode="q" horiz-adv-x="958" d="M532 -358q0 -23 23 -23h305q23 0 23 23v1044q0 27 1 60.5t2 67.5t2 64.5t1 53.5v31q0 16 2 36q0 12 -14 21l-263 39q-29 4 -30 -19q-2 -16 -4 -38.5t-7 -40.5q-35 45 -77.5 60t-87.5 15q-78 0 -144.5 -39t-115 -110.5t-75 -174t-26.5 -227.5q0 -94 19.5 -184t59.5 -160.5 t100.5 -113.5t140.5 -43q47 0 89 17t72 40zM532 365q0 -27 -8 -43q-12 -43 -47 -43t-58.5 58t-23.5 171q0 117 22.5 172t59.5 55q33 0 49 -51q4 -4 5 -17.5t1 -23.5v-278z" />
<glyph unicode="r" horiz-adv-x="643" d="M66 23q0 -23 22 -23h307q23 0 23 23v475q0 33 4 57.5t8 36.5q23 63 61.5 79.5t63.5 16.5h33q14 0 30 -4q25 0 25 23v303q0 16 -16 20q-12 4 -26.5 5t-43.5 1q-45 0 -94 -27.5t-88 -88.5l-8 81q0 18 -23 19h-264q-10 0 -17.5 -6t-5.5 -15q2 -76 5.5 -155.5t3.5 -157.5 v-663z" />
<glyph unicode="s" horiz-adv-x="694" d="M23 70q-4 -14 8 -23q37 -27 108.5 -43t139.5 -16q176 0 282.5 87t106.5 251q0 39 -9.5 78.5t-33 79.5t-63.5 79t-101 74q-53 31 -76 49.5t-23 34.5q0 18 14.5 30.5t49.5 12.5q37 0 68.5 -10.5t60.5 -24.5q10 -6 18.5 -1t12.5 17l49 222q2 8 -3 14t-11 10 q-45 20 -98.5 32.5t-119.5 12.5q-86 0 -153.5 -26.5t-114.5 -73.5t-71.5 -110.5t-24.5 -137.5q0 -31 8 -67.5t30.5 -75.5t63.5 -80t107 -78q51 -29 74.5 -47t23.5 -41q0 -41 -67 -41q-47 0 -95.5 15.5t-77.5 31.5q-10 6 -20 2t-14 -14z" />
<glyph unicode="t" horiz-adv-x="710" d="M154 1196q-6 -2 -11.5 -9t-5.5 -13v-154h-90q-23 0 -22 -21v-215q0 -23 22 -22h90v-395q0 -125 26.5 -196t76.5 -114q43 -37 98 -53t119 -16q59 0 107 5t79 13q14 4 14 23v239q0 10 -7 17.5t-17 5.5q-41 -6 -68 -6q-29 0 -52.5 21.5t-23.5 88.5v367h170q23 0 23 22v215 q0 20 -23 21h-170v244q0 10 -9 17t-19 3z" />
<glyph unicode="u" horiz-adv-x="974" d="M891 999q0 20 -23 21h-307q-23 0 -22 -21v-616q0 -23 -5.5 -44.5t-11.5 -33.5q-12 -20 -41 -20q-31 0 -46 43t-15 121v550q0 20 -23 21h-307q-20 0 -20 -21v-581q0 -217 66.5 -325.5t223.5 -108.5q66 0 123.5 25.5t98.5 68.5l28 -103q2 -6 9.5 -11t15.5 -3l264 39 q18 4 19 25q0 33 -3.5 60.5t-7.5 55.5q-6 41 -11 87t-5 106v665z" />
<glyph unicode="v" horiz-adv-x="851" d="M8 981q-8 -2 -13 -10t-1 -19l270 -936q2 -6 9.5 -11t13.5 -5h284q16 0 21 16l264 936q6 20 -14 29l-303 80q-23 6 -27 -21q-14 -104 -28.5 -213.5t-26.5 -214.5q-4 -33 -8.5 -63.5t-8.5 -59.5q-2 -4 -2 -14q-6 35 -11 69t-9 68l-53 428q-4 27 -29 21z" />
<glyph unicode="w" horiz-adv-x="1306" d="M16 981q-10 -2 -15 -10t-1 -19l240 -936q4 -16 22 -16h264q18 0 23 16q14 66 32.5 141.5t34.5 141.5q10 37 18.5 77t16.5 83q6 -41 9.5 -59.5t6.5 -31t6 -24.5t9 -43l55 -283q4 -18 21 -18h264q18 0 22 16l254 936q6 20 -16 29l-303 80q-25 6 -29 -21l-45 -432 q-4 -31 -6 -57.5t-6 -50.5v4q-4 23 -8 48.5t-11 57.5l-71 394q-4 16 -23 16h-235q-18 0 -23 -16q-16 -92 -37.5 -201t-38.5 -201q-6 -29 -11 -53.5t-11 -48.5q-2 -6 -2 -13q-4 25 -6 52.5t-6 64.5l-35 436q-4 25 -27 21z" />
<glyph unicode="x" horiz-adv-x="860" d="M20 1020q-10 0 -16 -8t-2 -21q51 -121 102.5 -241.5t102.5 -243.5l-205 -475q-4 -12 2 -21.5t16 -9.5h308q16 0 20 16q10 41 23.5 83t23.5 83q6 33 17 66q4 -16 10 -31.5t10 -32.5l55 -168q4 -16 21 -16h334q12 0 17 9t1 22q-53 123 -107.5 243.5t-109.5 243.5l211 471 q6 12 1 21.5t-19 9.5h-308q-4 0 -11 -5t-9 -9q-10 -39 -22.5 -81t-22.5 -79q-6 -20 -11.5 -39t-9.5 -37q-4 18 -9 36.5t-11 39.5l-45 160q-2 4 -9.5 9t-13.5 5h-334z" />
<glyph unicode="y" horiz-adv-x="839" d="M8 981q-18 -8 -12 -29l276 -864q6 -16 7 -31q0 -6 -4.5 -13t-8.5 -15q-25 -55 -71 -88q-27 -20 -58 -35t-61 -25q-18 -8 -13 -28l87 -267q6 -18 24 -14q35 6 108.5 46t145.5 118q39 43 70.5 97t58.5 112.5t47.5 120t36.5 118.5l215 768q6 20 -14 29l-301 80 q-23 6 -27 -21l-65 -520l-80 522q-2 10 -10.5 15.5t-18.5 3.5z" />
<glyph unicode="z" horiz-adv-x="751" d="M27 23q0 -23 22 -23h653q23 0 23 23v249q0 20 -23 21h-282q8 18 10 18t14 21q14 23 29.5 50.5t30.5 49.5l207 350v217q0 20 -23 21h-612q-23 0 -23 -21v-249q0 -23 23 -23h250q-10 -23 -20.5 -37t-24.5 -37q-10 -16 -19.5 -31.5t-19.5 -31.5l-215 -369v-198z" />
<glyph unicode="{" horiz-adv-x="532" d="M-10 502q0 -20 22 -21q66 0 86.5 -27.5t20.5 -50.5q0 -35 -4 -72.5t-9 -74.5q-4 -39 -8 -77t-4 -81q0 -90 26.5 -151.5t74 -99t109 -54t132.5 -16.5h47q23 0 23 22v185q0 23 -23 22h-24q-55 0 -70.5 35t-15.5 78q0 14 1 31.5t3 31.5q2 10 3 22.5t1 22.5q6 57 6 119 q0 174 -127 248q63 37 95 102.5t32 147.5q0 16 -1 33.5t-3 33.5q0 10 -1 19.5t-1 19.5q-2 29 -5 58.5t-3 62.5q0 41 20.5 74t61.5 33h28q23 0 23 22v184q0 20 -23 21h-41q-168 0 -258 -83t-90 -241q0 -41 4 -78.5t8 -74.5q4 -35 8.5 -72t4.5 -72q0 -29 -20.5 -53t-86.5 -24 q-23 0 -22 -23v-182z" />
<glyph unicode="|" horiz-adv-x="462" d="M121 1532q-23 0 -23 -21v-1986q0 -20 23 -21h221q23 0 23 21v1986q0 20 -23 21h-221z" />
<glyph unicode="}" horiz-adv-x="532" d="M543 684q0 23 -23 23q-66 0 -86 24.5t-20 52.5q0 35 4 72t8 72q4 37 8 74.5t4 78.5q0 158 -90 241t-258 83h-41q-23 0 -22 -21v-184q0 -23 22 -22h29q41 0 61.5 -33t20.5 -74q0 -23 -1 -43t-3 -41q0 -10 -1 -19.5t-1 -19.5q0 -4 -2 -4v-4v2q-6 -53 -7 -98 q0 -84 31 -147.5t96 -98.5q-63 -37 -95 -101.5t-32 -150.5q0 -29 3.5 -59.5t5.5 -59.5q0 -8 1 -17t1 -20q2 -18 3 -36.5t1 -34.5q0 -43 -15.5 -78t-70.5 -35h-25q-23 0 -22 -22v-185q0 -23 22 -22h47q70 0 132.5 16.5t109.5 54t73.5 99t26.5 151.5q0 43 -4 81t-8 77 q-4 37 -8 75t-4 72q0 23 20.5 50.5t85.5 27.5q23 0 23 21v182z" />
<glyph unicode="~" horiz-adv-x="1220" d="M311 383q20 0 21 23q2 88 20.5 116.5t46.5 28.5q10 0 22.5 -4t32 -15.5t47 -29t68.5 -43.5q45 -31 81 -50.5t67 -30.5t60.5 -15.5t66.5 -4.5q143 0 216 101.5t64 290.5q0 20 -22 20h-191q-20 0 -20 -20q-2 -84 -17.5 -115t-44.5 -31q-18 0 -39.5 11.5t-66.5 41.5h2 q-8 4 -17.5 11.5t-21.5 15.5l2 -2q-80 51 -141.5 80t-138.5 29q-51 0 -106.5 -18.5t-100.5 -62.5t-75 -118t-30 -186q0 -23 23 -23h192z" />
<glyph unicode="&#xa1;" horiz-adv-x="512" d="M422 -381q23 0 22 23l-34 874q0 23 -23 23h-262q-23 0 -23 -23l-34 -874q0 -23 22 -23h332zM256 1020q-78 0 -135.5 -55.5t-57.5 -149.5q0 -88 56.5 -145.5t138.5 -57.5q88 0 139.5 57.5t51.5 145.5q0 94 -55.5 149.5t-137.5 55.5z" />
<glyph unicode="&#xa2;" d="M639 -16q23 0 23 22v172q49 2 79.5 8.5t61.5 20.5q12 6 12 20l-20 232q-2 12 -11.5 17t-19.5 1q-39 -16 -72 -21t-80 -5q-72 0 -121 56t-49 155q0 104 44 161.5t110 57.5q39 0 71.5 -4.5t73.5 -24.5q10 -4 19.5 1t11.5 17l35 232q0 14 -12 22q-23 12 -55.5 20.5 t-73.5 12.5v172q0 20 -23 21h-192q-23 0 -23 -21v-188q-152 -43 -242 -169t-90 -310q0 -96 24.5 -177.5t69.5 -140.5q41 -57 101.5 -95t132.5 -59v-184q0 -23 22 -22h193z" />
<glyph unicode="&#xa3;" d="M803 0q20 0 20 23v256q0 20 -20 20h-324q20 27 34.5 55.5t25.5 55.5q10 35 16 63.5t6 65.5h158q20 0 20 20v201q0 23 -20 22h-187q-8 41 -12 78t-4 76q0 53 25.5 84t76.5 31q33 0 54.5 -6.5t44.5 -16.5q10 -4 19 0t12 16l40 248q2 6 -3 13.5t-11 11.5q-27 10 -67.5 21.5 t-106.5 11.5q-104 0 -182 -35t-130 -92.5t-79 -131t-27 -153.5q0 -39 3 -77t12 -79h-95q-20 0 -20 -22v-201q0 -20 20 -20h136q2 -16 2 -33v-31q0 -31 -7.5 -64.5t-26 -67.5t-48 -63.5t-74.5 -48.5q-14 -4 -14 -18v-190q0 -23 20 -23h713z" />
<glyph unicode="&#xa5;" d="M596 0q23 0 22 23v286h240q20 0 21 23v151q0 20 -21 21h-240v59h240q20 0 21 23v151q0 20 -21 21h-168l223 547q4 12 -2 21t-18 9h-281q-18 0 -22 -16q-23 -86 -46.5 -174t-45.5 -174q-10 -35 -16.5 -64.5t-12.5 -60.5q-4 18 -7 28.5t-7 21.5t-8.5 26.5t-12.5 46.5 l-92 350q-4 16 -23 16h-301q-12 0 -18 -9t-2 -21q55 -135 111.5 -271.5t111.5 -275.5h-168q-23 0 -22 -21v-151q0 -23 22 -23h240v-59h-240q-23 0 -22 -21v-151q0 -23 22 -23h240v-286q0 -23 22 -23h281z" />
<glyph unicode="&#xa6;" horiz-adv-x="462" d="M121 391q-23 0 -23 -22v-695q0 -23 23 -22h221q23 0 23 22v695q0 23 -23 22h-221zM121 1384q-23 0 -23 -22v-694q0 -23 23 -23h221q23 0 23 23v694q0 23 -23 22h-221z" />
<glyph unicode="&#xa7;" d="M766 1321q4 14 -12 22q-90 53 -228 54q-88 0 -160.5 -23.5t-124 -66.5t-80 -103.5t-28.5 -136.5q0 -45 15.5 -88t37.5 -76q-63 -53 -95 -115.5t-32 -128.5q0 -63 22.5 -114t61.5 -93t92.5 -76t114.5 -61q78 -35 120 -61.5t42 -54.5q0 -29 -25.5 -44.5t-72.5 -15.5 q-78 0 -133.5 19.5t-85.5 38.5q-10 6 -20.5 3t-12.5 -16l-49 -196q-2 -6 2 -13.5t8 -9.5q53 -35 132 -50t163 -15q82 0 152.5 24.5t122.5 69.5t81 107.5t29 136.5q0 59 -16.5 101t-38.5 64q49 55 75.5 119t26.5 137q0 76 -23.5 131.5t-64.5 96.5t-97.5 70.5t-123.5 54.5 q-39 14 -61.5 25.5t-35 21.5t-16.5 22.5t-4 28.5q0 20 24.5 33.5t63.5 13.5q53 0 99 -12t81 -29q25 -10 33 17zM317 713q0 16 10.5 31.5t20.5 25.5q29 -16 67 -34.5t85 -37.5q49 -20 72.5 -50t23.5 -54q0 -10 -8 -28.5t-13 -28.5q-18 12 -52 28.5t-79 36.5 q-74 31 -100.5 59.5t-26.5 51.5z" />
<glyph unicode="&#xa8;" horiz-adv-x="614" d="M127 1092q66 0 107.5 45t41.5 116q0 72 -43 116t-106 44q-61 0 -106.5 -45t-45.5 -115q0 -72 44.5 -116.5t107.5 -44.5zM485 1092q66 0 109 45t43 116q0 72 -43 116t-109 44q-61 0 -105 -45t-44 -115q0 -72 44 -116.5t105 -44.5z" />
<glyph unicode="&#xa9;" horiz-adv-x="1386" d="M696 1331q-133 0 -248.5 -50t-201.5 -136t-136.5 -202t-50.5 -247q0 -133 50.5 -248.5t136.5 -201.5t201.5 -136.5t248.5 -50.5q131 0 247 50.5t201 136.5t134 201.5t49 248.5q0 131 -49 247t-134 202t-201 136t-247 50zM696 1163q92 0 174 -36.5t143.5 -101t96.5 -149.5 t35 -182q0 -96 -35 -181t-96.5 -148.5t-143.5 -100.5t-174 -37q-94 0 -176 37t-143.5 100.5t-96 149.5t-34.5 182q0 94 34.5 179.5t96 150t143.5 101t176 36.5zM985 997q0 14 -8 21q-10 8 -33.5 18.5t-54.5 19.5t-67 14t-72 5q-86 0 -161 -26.5t-132.5 -77.5t-90 -123 t-32.5 -164q0 -80 26.5 -149.5t76.5 -121t121 -81t159 -29.5q59 0 126.5 14.5t121.5 42.5q6 4 10 12.5t2 14.5l-33 121q-4 12 -13 15t-20 -3q-31 -18 -80 -29.5t-100 -11.5q-39 0 -74.5 15.5t-63.5 43t-45.5 65.5t-17.5 85q0 106 57.5 159.5t153.5 53.5q66 0 114 -16.5 t65 -26.5q10 -6 19 -1t13 15z" />
<glyph unicode="&#xaa;" horiz-adv-x="645" d="M590 522q20 4 16 27q-2 6 -4 15l-4 18q-8 29 -14 58.5t-6 53.5v209q0 49 -8.5 102.5t-37 99.5t-82 75.5t-141.5 29.5q-16 0 -20 -16l-37 -156q-4 -10 4 -18t18 -8q33 0 50.5 -8.5t21.5 -18.5q-55 -4 -107.5 -19.5t-94.5 -46t-66.5 -77.5t-24.5 -113q0 -98 53.5 -157.5 t137.5 -59.5q80 0 135 49l22 -63q4 -6 11.5 -11.5t15.5 -3.5zM352 748q0 -10 -6 -17q-16 -25 -37 -24q-16 0 -26.5 12t-10.5 31q0 29 22.5 45t57.5 20v-67z" />
<glyph unicode="&#xab;" horiz-adv-x="808" d="M483 885q8 12 1 23.5t-21 11.5h-215q-12 0 -21 -13l-211 -375q-4 -10 0 -20l213 -375q8 -12 21 -12h213q14 0 21.5 10t-1.5 23q-53 92 -106 182t-107 182zM817 885q8 12 1 23.5t-21 11.5h-215q-12 0 -21 -13l-211 -375q-4 -10 0 -20l213 -375q8 -12 19 -12h215 q14 0 21 10t-1 23q-53 92 -106.5 182t-106.5 182z" />
<glyph unicode="&#xac;" horiz-adv-x="1220" d="M98 899q-23 0 -22 -20v-189q0 -20 22 -20h815v-449q0 -23 23 -22h186q23 0 23 22v658q0 20 -23 20h-1024z" />
<glyph unicode="&#xad;" horiz-adv-x="512" d="M68 748q-23 0 -23 -23v-215q0 -23 23 -23h376q23 0 23 23v215q0 23 -23 23h-376z" />
<glyph unicode="&#xae;" horiz-adv-x="1044" d="M524 1399q-98 0 -183 -37t-149.5 -100.5t-101.5 -149.5t-37 -182q0 -98 37 -183t101.5 -150t149.5 -101.5t183 -36.5t183.5 36.5t148 101.5t99 149.5t36.5 183.5q0 96 -36.5 182t-99 149.5t-148 100.5t-183.5 37zM524 1255q63 0 120.5 -25.5t99.5 -69.5t67 -103.5 t25 -126.5q0 -72 -25 -132.5t-68 -105.5q-8 23 -16 103q-4 41 -18.5 70.5t-32.5 47.5q29 20 48 51t19 66q0 90 -53 127q-29 23 -74 34t-116 11q-61 0 -99.5 -5t-66.5 -9q41 31 89 49t101 18zM213 928q0 72 25.5 133t72.5 106v-2v-479q-47 47 -72.5 107.5t-25.5 134.5z M471 848h21q61 0 67 -51q12 -106 33 -140q4 -10 18 -10h76q-37 -23 -77 -35t-85 -10q-88 0 -162 45h87q23 0 22 23v178zM471 1071q10 2 13 1t22 -1q72 0 72 -45q0 -23 -23 -33t-61 -10h-23v88z" />
<glyph unicode="&#xaf;" horiz-adv-x="614" d="M90 1360q-20 0 -20 -23v-151q0 -23 20 -23h436q20 0 21 23v151q0 23 -21 23h-436z" />
<glyph unicode="&#xb0;" horiz-adv-x="593" d="M299 1399q-49 0 -96 -20.5t-84 -56.5t-59.5 -85t-22.5 -104q0 -106 71.5 -177t184.5 -71q43 0 89 16.5t85 49t64.5 81.5t25.5 115q0 49 -17.5 95t-50 81t-81 55.5t-109.5 20.5zM299 1243q49 0 69.5 -32.5t20.5 -71.5q0 -45 -26.5 -72t-61.5 -27t-63.5 27t-28.5 68 q0 45 27.5 76.5t62.5 31.5z" />
<glyph unicode="&#xb1;" horiz-adv-x="1220" d="M514 1169q-20 0 -20 -22v-301h-396q-23 0 -22 -23v-186q0 -20 22 -21h396v-307q0 -20 20 -20h193q20 0 20 20v307h395q23 0 23 21v186q0 23 -23 23h-395v301q0 23 -20 22h-193zM98 229q-23 0 -22 -20v-186q0 -23 22 -23h1024q23 0 23 23v186q0 20 -23 20h-1024z" />
<glyph unicode="&#xb2;" horiz-adv-x="655" d="M53 545q0 -23 23 -23h502q23 0 22 23v182q0 23 -22 23h-193l16 14q78 68 135.5 147.5t57.5 188.5q0 41 -13.5 85t-46 81t-88 60.5t-141.5 23.5q-78 0 -140.5 -19.5t-96.5 -48.5q-12 -8 -9 -22l41 -160q4 -12 14.5 -16.5t20.5 3.5q23 16 52.5 28.5t60.5 12.5q70 0 69 -75 q0 -41 -31.5 -86t-90.5 -117q-10 -10 -18.5 -22.5t-18.5 -22.5l-105 -123v-137z" />
<glyph unicode="&#xb3;" horiz-adv-x="655" d="M106 1133q6 -27 33 -17q29 14 52.5 21.5t52.5 7.5t45 -13.5t16 -35.5q0 -29 -37 -40.5t-80 -11.5h-16q-20 0 -20 -22v-141q0 -20 20 -21h29q45 0 78.5 -19.5t33.5 -56.5q0 -27 -23.5 -47t-60.5 -20q-33 0 -62.5 8t-55.5 23q-10 4 -19.5 -0.5t-11.5 -16.5l-29 -158 q-4 -16 10 -20q29 -16 74 -28.5t109 -12.5q158 0 248 73.5t90 188.5q0 59 -32 108.5t-85 73.5q43 31 69.5 76t26.5 107q0 35 -14.5 72.5t-46 68.5t-82.5 50.5t-125 19.5q-57 0 -111.5 -12.5t-93.5 -32.5q-4 -4 -8 -11.5t-2 -13.5z" />
<glyph unicode="&#xb4;" horiz-adv-x="614" d="M342 1417q-16 0 -20 -14l-129 -281q-6 -12 0 -21t20 -9h186q12 0 19 10l196 282q8 12 3 22.5t-21 10.5h-254z" />
<glyph unicode="&#xb5;" horiz-adv-x="974" d="M891 999q0 20 -23 21h-307q-23 0 -22 -21v-604q0 -14 -3.5 -32.5t-10.5 -34t-19 -25.5t-29 -10q-41 0 -49 51t-8 135v520q0 20 -23 21h-307q-23 0 -22 -21v-1357q0 -23 22 -23h281q20 0 20 23q-4 92 -7 185t-7 185q18 -8 47 -8q47 0 88 22.5t70 49.5l8 -58q4 -18 22 -18 h265q23 0 22 23q-4 74 -6 153.5t-2 157.5v665z" />
<glyph unicode="&#xb6;" d="M502 -303q20 0 20 20v1457h72v-1457q0 -20 22 -20h160q23 0 23 20v1624q0 18 -19 23q-23 4 -43 8t-45.5 6t-60.5 3t-86 1q-143 0 -243.5 -42t-164 -110.5t-90.5 -155.5t-22 -179q6 -109 45 -181.5t88 -115.5t95 -61.5t64 -20.5v-799q0 -20 23 -20h162z" />
<glyph unicode="&#xb7;" horiz-adv-x="512" d="M256 426q88 0 142.5 59.5t54.5 159.5q0 104 -58.5 162.5t-136.5 58.5q-39 0 -73.5 -16t-62.5 -46t-44.5 -71t-16.5 -88q0 -49 15.5 -90t42 -69.5t62.5 -44t75 -15.5z" />
<glyph unicode="&#xb8;" horiz-adv-x="614" d="M258 53q-16 0 -20 -14l-76 -172q-4 -10 1 -19.5t17 -11.5q59 -4 87 -16.5t28 -28.5q0 -14 -11.5 -18t-25.5 -4q-23 0 -48.5 7t-49.5 17q-23 12 -31 -14l-41 -125q-4 -16 12 -25q31 -16 76 -26.5t92 -10.5q51 0 97.5 10.5t82 34t57 62.5t21.5 94q0 63 -35.5 104.5 t-89.5 57.5l33 68q6 10 0 20t-20 10h-156z" />
<glyph unicode="&#xb9;" horiz-adv-x="655" d="M473 522q23 0 23 23v774q0 20 -23 20h-199l-206 -94q-18 -6 -15 -24l41 -154q8 -25 29 -16q23 10 54.5 24.5t53.5 24.5l5 -555q0 -23 20 -23h217z" />
<glyph unicode="&#xba;" horiz-adv-x="645" d="M319 1210q-55 0 -105 -21.5t-88 -64.5t-60.5 -109.5t-22.5 -154.5q0 -160 70.5 -254t205.5 -94q41 0 88.5 14.5t88.5 53t68.5 107.5t27.5 179q0 76 -17.5 138.5t-51.5 108.5t-85 71.5t-119 25.5zM319 1010q12 0 19.5 -13.5t11.5 -34t6 -47t2 -53.5q0 -57 -6 -103t-33 -46 q-25 0 -32.5 40t-7.5 109q0 16 1 42t5 49.5t12 40t22 16.5z" />
<glyph unicode="&#xbb;" horiz-adv-x="808" d="M205 520l-213 -362q-8 -12 -1 -22.5t21 -10.5h215q12 0 21 12l211 375q4 10 0 20l-213 375q-8 12 -19 13h-215q-14 0 -21 -10.5t1 -22.5zM539 522l-213 -364q-8 -12 -1 -22.5t21 -10.5h215q12 0 21 12l211 375q4 10 0 20l-213 375q-8 12 -21 13h-213q-14 0 -21.5 -10.5 t1.5 -22.5z" />
<glyph unicode="&#xbc;" horiz-adv-x="1413" d="M1241 0q23 0 23 23v141h57q23 0 22 20v158q0 20 -22 20h-57v435q0 20 -23 20h-209q-14 0 -20 -8l-279 -477v-148q0 -20 23 -20h272v-141q0 -23 21 -23h192zM1028 362h-65q18 37 30.5 59.5t34.5 57.5v-24v-93zM414 -16q12 0 20 12l699 1323q6 12 -0.5 21.5t-20.5 9.5h-149 q-12 0 -21 -13l-700 -1321q-6 -12 0 -22t18 -10h154zM440 522q20 0 21 23v774q0 20 -21 20h-198l-207 -94q-18 -6 -15 -24l41 -154q4 -27 29 -16q23 10 53.5 24.5t53.5 24.5l4 -555q0 -23 22 -23h217z" />
<glyph unicode="&#xbd;" horiz-adv-x="1413" d="M788 23q0 -23 23 -23h502q23 0 22 23v182q0 23 -22 22h-193l17 15q78 68 135 147.5t57 188.5q0 41 -13 85t-46 80.5t-88.5 60t-141.5 23.5q-78 0 -140 -19.5t-97 -47.5q-12 -8 -8 -23l41 -159q4 -12 14 -16.5t20 3.5q23 16 52.5 28.5t60.5 12.5q70 0 70 -76 q0 -41 -32 -86t-91 -116q-10 -10 -18.5 -22.5t-18.5 -22.5l-105 -123v-137zM358 -16q14 0 19 12l700 1323q6 12 0 21.5t-20 9.5h-152q-10 0 -18 -13l-703 -1321q-4 -12 1 -22t20 -10h153zM422 522q20 0 20 23v774q0 20 -20 20h-199l-207 -94q-18 -6 -14 -24l41 -154 q8 -25 29 -16q23 10 53.5 24.5t52.5 24.5l4 -555q0 -23 23 -23h217z" />
<glyph unicode="&#xbe;" horiz-adv-x="1413" d="M1257 0q20 0 21 23v141h57q23 0 23 20v158q0 20 -23 20h-57v435q0 20 -21 20h-210q-14 0 -21 -8l-278 -477v-148q0 -20 22 -20h272v-141q0 -23 21 -23h194zM1042 362h-65q18 37 30.5 59.5t34.5 57.5v-24v-93zM109 1133q6 -27 32 -17q29 14 52.5 21.5t52.5 7.5 q27 0 44 -13.5t17 -35.5q0 -29 -37 -40.5t-80 -11.5h-16q-23 0 -22 -22v-141q0 -20 22 -21h29q45 0 78.5 -19.5t33.5 -56.5q0 -27 -23.5 -47t-60.5 -20q-33 0 -62.5 8t-55.5 23q-10 4 -19.5 -0.5t-11.5 -16.5l-29 -158q-4 -16 10 -20q29 -16 74 -28.5t109 -12.5 q158 0 248 73.5t90 188.5q0 59 -32 108.5t-85 73.5q43 31 69.5 76t26.5 107q0 35 -14 72.5t-46 68.5t-83 50.5t-125 19.5q-59 0 -112.5 -12.5t-92.5 -32.5q-4 -4 -8 -11.5t-2 -13.5zM446 -16q12 0 21 12l698 1323q6 12 0 21.5t-20 9.5h-150q-12 0 -20 -13l-701 -1321 q-6 -12 0.5 -22t18.5 -10h153z" />
<glyph unicode="&#xbf;" horiz-adv-x="706" d="M281 567q-23 0 -23 -20q0 -12 -1 -24.5t-1 -24.5q-4 -53 -26.5 -99.5t-59.5 -97.5v2q-55 -74 -102.5 -163t-47.5 -195q0 -53 16.5 -113.5t59.5 -111t118 -84t189 -33.5q80 0 151 21.5t108 43.5q14 8 10 23l-47 235q-4 12 -14.5 17.5t-20.5 -2.5q-25 -18 -55.5 -24.5 t-57.5 -6.5q-51 0 -75.5 25.5t-24.5 60.5q0 43 16.5 83t50.5 95q53 82 90 163t29 171l-4 39q0 20 -22 20h-256zM406 1020q-78 0 -135.5 -55.5t-57.5 -149.5q0 -88 56.5 -145.5t138.5 -57.5q88 0 138 57.5t50 145.5q0 94 -54 149.5t-136 55.5z" />
<glyph unicode="&#xc0;" horiz-adv-x="958" d="M559 264l41 -246q4 -18 23 -18h297q27 0 22 27l-246 1337q0 18 -20 18h-373q-18 0 -22 -18l-285 -1337q-4 -10 4 -18.5t18 -8.5h297q18 0 23 18q10 59 21.5 122t21.5 124h178zM418 545q10 59 17 112.5t18 114.5q4 27 10 64.5t12 78.5q2 8 1 11.5t1 11.5q4 -20 5 -25.5 t1 -9.5v-8t4 -31q4 -27 7.5 -50t5.5 -42q6 -57 14 -114.5t16 -112.5h-112zM156 1712q-16 0 -22.5 -14.5t5.5 -24.5l277 -264h202q14 0 19.5 11.5t-2.5 23.5l-182 258q-6 10 -17 10h-280z" />
<glyph unicode="&#xc1;" horiz-adv-x="958" d="M559 264l41 -246q4 -18 23 -18h297q27 0 22 27l-246 1337q0 18 -20 18h-373q-18 0 -22 -18l-285 -1337q-4 -10 4 -18.5t18 -8.5h297q18 0 23 18q10 59 21.5 122t21.5 124h178zM418 545q10 59 17 112.5t18 114.5q4 27 10 64.5t12 78.5q2 8 1 11.5t1 11.5q4 -20 5 -25.5 t1 -9.5v-8t4 -31q4 -27 7.5 -50t5.5 -42q6 -57 14 -114.5t16 -112.5h-112zM573 1712q-12 0 -16 -10l-184 -258q-6 -12 -2 -23.5t20 -11.5h203l276 264q12 10 6 24.5t-22 14.5h-281z" />
<glyph unicode="&#xc2;" horiz-adv-x="958" d="M559 264l41 -246q4 -18 23 -18h297q27 0 22 27l-246 1337q0 18 -20 18h-373q-18 0 -22 -18l-285 -1337q-4 -10 4 -18.5t18 -8.5h297q18 0 23 18q10 59 21.5 122t21.5 124h178zM418 545q10 59 17 112.5t18 114.5q4 27 10 64.5t12 78.5q2 8 1 11.5t1 11.5q4 -20 5 -25.5 t1 -9.5v-8t4 -31q4 -27 7.5 -50t5.5 -42q6 -57 14 -114.5t16 -112.5h-112zM408 1712q-14 0 -19 -10l-176 -258q-8 -12 -2 -23.5t20 -11.5h197q10 0 18 12q12 23 23.5 44.5t24.5 45.5l49 -90q8 -12 20 -12h203q16 0 22.5 11.5t-4.5 23.5l-184 258q-6 10 -18 10h-174z" />
<glyph unicode="&#xc3;" horiz-adv-x="958" d="M559 264l41 -246q4 -18 23 -18h297q27 0 22 27l-246 1337q0 18 -20 18h-373q-18 0 -22 -18l-285 -1337q-4 -10 4 -18.5t18 -8.5h297q18 0 23 18q10 59 21.5 122t21.5 124h178zM418 545q10 59 17 112.5t18 114.5q4 27 10 64.5t12 78.5q2 8 1 11.5t1 11.5q4 -20 5 -25.5 t1 -9.5v-8t4 -31q4 -27 7.5 -50t5.5 -42q6 -57 14 -114.5t16 -112.5h-112zM385 1425q23 0 23 21q4 47 18 47q12 0 25.5 -7t31.5 -20q23 -12 53.5 -22t67.5 -10q78 0 123 55t41 194q0 23 -20 23h-132q-18 0 -22 -18q-4 -33 -9 -45.5t-16 -12.5q-10 0 -25.5 9.5t-33.5 21.5 q-23 14 -52.5 25.5t-68.5 11.5q-72 0 -118 -57.5t-40 -192.5q0 -23 21 -23h133z" />
<glyph unicode="&#xc4;" horiz-adv-x="958" d="M559 264l41 -246q4 -18 23 -18h297q27 0 22 27l-246 1337q0 18 -20 18h-373q-18 0 -22 -18l-285 -1337q-4 -10 4 -18.5t18 -8.5h297q18 0 23 18q10 59 21.5 122t21.5 124h178zM418 545q10 59 17 112.5t18 114.5q4 27 10 64.5t12 78.5q2 8 1 11.5t1 11.5q4 -20 5 -25.5 t1 -9.5v-8t4 -31q4 -27 7.5 -50t5.5 -42q6 -57 14 -114.5t16 -112.5h-112zM672 1409q59 0 102 45t43 109q0 66 -43 110.5t-102 44.5q-57 0 -101.5 -45t-44.5 -110q0 -63 43.5 -108.5t102.5 -45.5zM324 1409q59 0 102 45t43 109q0 66 -43 110.5t-102 44.5q-57 0 -101.5 -45 t-44.5 -110q0 -63 43.5 -108.5t102.5 -45.5z" />
<glyph unicode="&#xc5;" horiz-adv-x="958" d="M559 264l43 -246q4 -18 23 -18h297q27 0 22 27q-66 344 -128 682t-126 682q43 53 43 133q0 31 -12 64.5t-41 60t-74 44t-112 17.5q-66 0 -112 -18.5t-74.5 -47t-43 -63.5t-14.5 -65q0 -70 39 -117l-291 -1372q-4 -10 4 -18.5t18 -8.5h297q18 0 23 18q10 61 18.5 122 t18.5 124h182zM416 545l41 270q2 10 4 23.5t6 29.5q4 12 5 22.5t5 27.5q6 -29 6 -35v-6v-7q0 -4 4 -30q2 -6 2 -17q0 -8 3 -12q8 -66 17 -133.5t19 -132.5h-112zM492 1563q29 0 38 -16.5t9 -35.5q0 -33 -9.5 -52t-37.5 -19q-29 0 -38.5 20.5t-9.5 46.5q0 20 9.5 38t38.5 18z " />
<glyph unicode="&#xc6;" horiz-adv-x="1253" d="M293 0q16 0 20 18q16 78 36 157t36 159h197l22 -314q0 -20 23 -20h577q20 0 21 23v266q0 20 -21 20h-289q-4 59 -8 116.5t-8 113.5h268q23 0 23 20v256q0 20 -23 21h-293q-4 61 -8 120.5t-8 116.5h324q23 0 22 21v266q0 23 -22 22h-789q-6 0 -13 -5t-9 -11l-402 -1337 q-4 -10 3.5 -19.5t17.5 -9.5h303zM451 614l43 201l18 86q4 25 10 50.5t13 54.5q2 -35 4 -64t4 -55q4 -61 7 -136t7 -137h-106z" />
<glyph unicode="&#xc7;" horiz-adv-x="827" d="M788 299q-4 27 -28 20q-23 -6 -55.5 -11t-57.5 -5q-109 0 -176.5 91t-67.5 290q0 104 19.5 180t52.5 124t78 70.5t98 22.5q35 0 59.5 -6t45.5 -16q10 -4 20 1t12 15l48 258q2 4 -2.5 10.5t-8.5 10.5q-23 14 -74 27.5t-126 13.5q-109 0 -214.5 -42t-189.5 -130 t-135 -225.5t-51 -327.5q0 -111 21.5 -215.5t67.5 -192.5t116.5 -152.5t169.5 -97.5l-66 -145q-4 -10 1 -19.5t17 -11.5q59 -4 87 -16.5t28 -28.5q0 -14 -10 -18t-27 -4q-23 0 -48 7t-50 17q-8 4 -17.5 0t-13.5 -14l-39 -125q-4 -18 11 -25q31 -16 77 -26.5t91 -10.5 q51 0 97 10.5t82 34t57.5 62.5t21.5 94q0 63 -36 104.5t-89 57.5q10 18 16 33q68 2 120 11t79 21q14 6 14 21z" />
<glyph unicode="&#xc8;" horiz-adv-x="843" d="M748 844q0 23 -21 22h-270v207h282q23 0 23 21v266q0 23 -23 22h-612q-23 0 -23 -22v-1337q0 -23 23 -23h635q23 0 22 23v266q0 20 -22 20h-305v258h270q20 0 21 23v254zM123 1712q-16 0 -22.5 -14.5t5.5 -24.5l277 -264h203q14 0 19 11.5t-1 23.5l-184 258q-6 10 -17 10 h-280z" />
<glyph unicode="&#xc9;" horiz-adv-x="843" d="M748 844q0 23 -21 22h-270v207h284q20 0 21 21v266q0 23 -21 22h-614q-23 0 -23 -22v-1337q0 -23 23 -23h635q23 0 22 23v266q0 20 -22 20h-305v258h270q20 0 21 23v254zM498 1712q-12 0 -17 -10l-184 -258q-6 -12 -2 -23.5t20 -11.5h203l277 264q12 10 6 24.5t-23 14.5 h-280z" />
<glyph unicode="&#xca;" horiz-adv-x="843" d="M748 844q0 23 -21 22h-270v207h282q23 0 23 21v266q0 23 -23 22h-612q-23 0 -23 -22v-1337q0 -23 23 -23h635q23 0 22 23v266q0 20 -22 20h-305v258h270q20 0 21 23v254zM354 1712q-12 0 -16 -10l-178 -258q-6 -12 -1 -23.5t19 -11.5h197q12 0 20 12q12 23 22.5 44.5 t22.5 45.5l49 -90q8 -12 21 -12h205q16 0 22 11.5t-4 23.5l-186 258q-6 10 -17 10h-176z" />
<glyph unicode="&#xcb;" horiz-adv-x="843" d="M748 844q0 23 -21 22h-270v207h282q23 0 23 21v266q0 23 -23 22h-612q-23 0 -23 -22v-1337q0 -23 23 -23h635q23 0 22 23v266q0 20 -22 20h-305v258h270q20 0 21 23v254zM614 1409q59 0 102.5 45t43.5 109q0 66 -43 110.5t-103 44.5q-55 0 -99 -45t-44 -110 q0 -63 43 -108.5t100 -45.5zM268 1409q59 0 101.5 45t42.5 109q0 66 -42 110.5t-102 44.5q-57 0 -101 -45t-44 -110q0 -63 43 -108.5t102 -45.5z" />
<glyph unicode="&#xcc;" horiz-adv-x="550" d="M119 1382q-23 0 -23 -22v-1337q0 -23 23 -23h307q23 0 23 23v1337q0 23 -23 22h-307zM-68 1712q-16 0 -22 -14.5t6 -24.5l277 -264h202q14 0 19.5 11.5t-2.5 23.5l-183 258q-6 10 -18 10h-279z" />
<glyph unicode="&#xcd;" horiz-adv-x="550" d="M125 1382q-23 0 -23 -22v-1337q0 -23 23 -23h307q23 0 23 23v1337q0 23 -23 22h-307zM334 1712q-14 0 -19 -10l-182 -258q-8 -12 -3 -23.5t20 -11.5h202l277 264q12 10 6 24.5t-23 14.5h-278z" />
<glyph unicode="&#xce;" horiz-adv-x="550" d="M121 1382q-20 0 -21 -22v-1337q0 -23 21 -23h309q20 0 21 23v1337q0 23 -21 22h-309zM182 1712q-12 0 -16 -10l-178 -258q-6 -12 -1 -23.5t19 -11.5h197q12 0 20 12q12 23 22.5 44.5t22.5 45.5l49 -90q8 -12 21 -12h205q16 0 22 11.5t-4 23.5l-186 258q-6 10 -17 10h-176 z" />
<glyph unicode="&#xcf;" horiz-adv-x="550" d="M121 1382q-20 0 -21 -22v-1337q0 -23 21 -23h309q20 0 21 23v1337q0 23 -21 22h-309zM446 1409q59 0 102.5 45t43.5 109q0 66 -43 110.5t-103 44.5q-57 0 -100 -45t-43 -110q0 -63 43 -108.5t100 -45.5zM100 1409q57 0 100.5 45t43.5 109q0 66 -43 110.5t-101 44.5 q-57 0 -101 -45t-44 -110q0 -63 43 -108.5t102 -45.5z" />
<glyph unicode="&#xd0;" horiz-adv-x="1046" d="M-6 606q0 -23 20 -22h92v-557q0 -18 21 -23q41 -4 103.5 -10t131.5 -6q141 0 255 35.5t186 93.5q102 82 153.5 235.5t51.5 347.5q0 193 -42 331t-137 224h2q-74 66 -173 100t-240 34q-88 0 -165 -8.5t-128 -18.5q-18 -4 -19 -23v-501h-92q-20 0 -20 -23v-209zM580 815 q0 23 -23 23h-100v260q6 2 20 2q90 0 130 -104.5t40 -280.5q0 -119 -13 -201t-37 -133t-54.5 -74.5t-67.5 -23.5h-18v301h100q23 0 23 22v209z" />
<glyph unicode="&#xd1;" horiz-adv-x="1101" d="M397 0q23 0 23 23v229q0 119 -2 229.5t-6 198.5q10 -37 18 -61.5t17.5 -47t19.5 -47t25 -59.5l180 -451q4 -14 20 -14h281q20 0 20 23v1337q0 23 -20 22h-268q-23 0 -23 -22v-217q0 -125 5 -247t13 -220q-23 57 -44 113.5t-38 97.5l-188 481q-4 14 -20 14h-281 q-20 0 -20 -22v-1337q0 -23 20 -23h268zM444 1425q20 0 21 21q4 47 18 47t27.5 -7t30.5 -20q25 -12 54.5 -22t66.5 -10q80 0 124.5 55t40.5 194q0 23 -22 23h-131q-18 0 -23 -18q-4 -33 -8 -45.5t-14 -12.5t-26.5 9.5t-33.5 21.5q-25 14 -53.5 25.5t-66.5 11.5 q-74 0 -120 -57.5t-40 -192.5q0 -23 22 -23h133z" />
<glyph unicode="&#xd2;" horiz-adv-x="1015" d="M506 -16q106 0 193 42t149.5 131t96.5 228t34 336q0 98 -17.5 216t-67.5 221.5t-139 172t-233 68.5q-127 0 -219 -62.5t-151.5 -162t-87 -225.5t-27.5 -255q0 -127 23.5 -254t78 -228t144.5 -164.5t223 -63.5zM510 293q-57 0 -85 106.5t-26 298.5q0 84 6.5 156t20.5 124 t34.5 80.5t49.5 28.5t48.5 -28.5t31.5 -79.5t17 -122t5 -152q0 -197 -24.5 -304.5t-77.5 -107.5zM164 1712q-14 0 -20.5 -14.5t6.5 -24.5l274 -264h203q16 0 21 11.5t-3 23.5l-182 258q-6 10 -19 10h-280z" />
<glyph unicode="&#xd3;" horiz-adv-x="1015" d="M506 -16q106 0 193 42t149.5 131t96.5 228t34 336q0 98 -17.5 216t-67.5 221.5t-139 172t-233 68.5q-127 0 -219 -62.5t-151.5 -162t-87 -225.5t-27.5 -255q0 -127 23.5 -254t78 -228t144.5 -164.5t223 -63.5zM510 293q-57 0 -85 106.5t-26 298.5q0 84 6.5 156t20.5 124 t34.5 80.5t49.5 28.5t48.5 -28.5t31.5 -79.5t17 -122t5 -152q0 -197 -24.5 -304.5t-77.5 -107.5zM584 1712q-14 0 -19 -10l-182 -258q-8 -12 -3 -23.5t21 -11.5h203l275 264q12 10 6 24.5t-21 14.5h-280z" />
<glyph unicode="&#xd4;" horiz-adv-x="1015" d="M506 -16q106 0 193 42t149.5 131t96.5 228t34 336q0 98 -17.5 216t-67.5 221.5t-139 172t-233 68.5q-127 0 -219 -62.5t-151.5 -162t-87 -225.5t-27.5 -255q0 -127 23.5 -254t78 -228t144.5 -164.5t223 -63.5zM510 293q-57 0 -85 106.5t-26 298.5q0 84 6.5 156t20.5 124 t34.5 80.5t49.5 28.5t48.5 -28.5t31.5 -79.5t17 -122t5 -152q0 -197 -24.5 -304.5t-77.5 -107.5zM416 1712q-12 0 -17 -10l-178 -258q-6 -12 -1 -23.5t20 -11.5h196q12 0 21 12q12 23 22 44.5t23 45.5l49 -90q8 -12 20 -12h205q16 0 22.5 11.5t-3.5 23.5l-187 258 q-6 10 -16 10h-176z" />
<glyph unicode="&#xd5;" horiz-adv-x="1015" d="M506 -16q106 0 193 42t149.5 131t96.5 228t34 336q0 98 -17.5 216t-67.5 221.5t-139 172t-233 68.5q-127 0 -219 -62.5t-151.5 -162t-87 -225.5t-27.5 -255q0 -127 23.5 -254t78 -228t144.5 -164.5t223 -63.5zM510 293q-57 0 -85 106.5t-26 298.5q0 84 6.5 156t20.5 124 t34.5 80.5t49.5 28.5t48.5 -28.5t31.5 -79.5t17 -122t5 -152q0 -197 -24.5 -304.5t-77.5 -107.5zM395 1425q20 0 21 21q4 47 18 47t27.5 -7t30.5 -20q25 -12 54 -22t66 -10q80 0 125 55t41 194q0 23 -22 23h-131q-16 0 -21 -18q-4 -33 -9 -45.5t-15 -12.5t-26.5 9.5 t-33.5 21.5q-25 14 -53.5 25.5t-67.5 11.5q-74 0 -120 -57.5t-39 -192.5q0 -23 22 -23h133z" />
<glyph unicode="&#xd6;" horiz-adv-x="1015" d="M506 -16q106 0 193 42t149.5 131t96.5 228t34 336q0 98 -17.5 216t-67.5 221.5t-139 172t-233 68.5q-127 0 -219 -62.5t-151.5 -162t-87 -225.5t-27.5 -255q0 -127 23.5 -254t78 -228t144.5 -164.5t223 -63.5zM510 293q-57 0 -85 106.5t-26 298.5q0 84 6.5 156t20.5 124 t34.5 80.5t49.5 28.5t48.5 -28.5t31.5 -79.5t17 -122t5 -152q0 -197 -24.5 -304.5t-77.5 -107.5zM334 1409q57 0 100 45t43 109q0 66 -43 110.5t-100 44.5t-101.5 -45t-44.5 -110q0 -63 43.5 -108.5t102.5 -45.5zM680 1409q59 0 102 45t43 109q0 66 -43 110.5t-102 44.5 q-55 0 -99 -45t-44 -110q0 -63 43 -108.5t100 -45.5z" />
<glyph unicode="&#xd7;" horiz-adv-x="1220" d="M82 946q-6 -4 -6 -14t6 -17q90 -92 182 -185t182 -185l-364 -369q-6 -6 -6 -16q0 -8 6 -15l133 -139q6 -8 16 -8t17 8q92 94 181 184.5t181 184.5l363 -369q6 -8 16 -8t17 8l133 139q14 14 0 31q-90 92 -182.5 184.5t-182.5 184.5l365 370q6 6 6 17q0 10 -6 14l-127 135 q-6 8 -16.5 7t-16.5 -7q-92 -92 -184.5 -185t-184.5 -185l-368 370q-6 6 -16.5 7.5t-16.5 -7.5z" />
<glyph unicode="&#xd8;" horiz-adv-x="1015" d="M236 -111q20 -10 30 11q12 29 26.5 61.5t29.5 65.5q80 -43 188 -43q106 0 192 42t147.5 131t95.5 228t34 336q0 57 -5 121.5t-18.5 130t-37 129t-60.5 117.5l82 182q8 18 -10 26l-160 66q-23 8 -29 -12q-12 -29 -25.5 -58.5t-27.5 -58.5q-35 16 -81 25.5t-93 9.5 q-127 0 -217 -63.5t-147.5 -165t-85 -226.5t-27.5 -250q0 -141 24.5 -276t94.5 -240l-80 -178q-6 -16 8 -29zM637 752v-47q0 -115 -10.5 -194t-26.5 -127t-38.5 -69.5t-49.5 -21.5q-18 0 -36.5 7t-29.5 24zM379 643v55q0 111 11 185.5t29.5 120t43 64.5t49.5 19 q16 0 27.5 -6t21.5 -14z" />
<glyph unicode="&#xd9;" horiz-adv-x="1060" d="M119 1382q-20 0 -21 -22v-799q0 -131 21.5 -237.5t72 -182t134.5 -116.5t206 -41q223 0 327 152.5t104 420.5v803q0 23 -21 22h-309q-20 0 -21 -22v-858q0 -63 -6 -103.5t-17 -64t-26.5 -31.5t-32.5 -8q-33 0 -57 44t-24 163v858q0 23 -21 22h-309zM211 1712 q-16 0 -22.5 -14.5t6.5 -24.5l276 -264h203q16 0 20 11.5t-2 23.5l-184 258q-6 10 -16 10h-281z" />
<glyph unicode="&#xda;" horiz-adv-x="1060" d="M119 1382q-20 0 -21 -22v-799q0 -131 21.5 -237.5t72 -182t134.5 -116.5t206 -41q223 0 327 152.5t104 420.5v803q0 23 -21 22h-309q-20 0 -21 -22v-858q0 -63 -6 -103.5t-17 -64t-26.5 -31.5t-32.5 -8q-33 0 -57 44t-24 163v858q0 23 -21 22h-309zM565 1712q-4 0 -9 -3 t-7 -7l-182 -258q-8 -12 -3 -23.5t19 -11.5h203l276 264q12 10 6 24.5t-22 14.5h-281z" />
<glyph unicode="&#xdb;" horiz-adv-x="1060" d="M119 1382q-20 0 -21 -22v-799q0 -131 21.5 -237.5t72 -182t134.5 -116.5t206 -41q223 0 327 152.5t104 420.5v803q0 23 -21 22h-309q-20 0 -21 -22v-858q0 -63 -6 -103.5t-17 -64t-26.5 -31.5t-32.5 -8q-33 0 -57 44t-24 163v858q0 23 -21 22h-309zM449 1712 q-4 0 -10.5 -3t-6.5 -7l-178 -258q-8 -12 -2 -23.5t20 -11.5h197q12 0 20 12q10 23 21.5 44.5t24.5 45.5l49 -90q8 -12 20 -12h205q14 0 20.5 11.5t-4.5 23.5l-184 258q-6 10 -16 10h-176z" />
<glyph unicode="&#xdc;" horiz-adv-x="1060" d="M119 1382q-20 0 -21 -22v-799q0 -131 21.5 -237.5t72 -182t134.5 -116.5t206 -41q223 0 327 152.5t104 420.5v803q0 23 -21 22h-309q-20 0 -21 -22v-858q0 -63 -6 -103.5t-17 -64t-26.5 -31.5t-32.5 -8q-33 0 -57 44t-24 163v858q0 23 -21 22h-309zM702 1409 q59 0 102.5 45t43.5 109q0 66 -43 110.5t-103 44.5q-55 0 -99 -45t-44 -110q0 -63 43 -108.5t100 -45.5zM356 1409q57 0 100.5 45t43.5 109q0 66 -43 110.5t-101 44.5q-57 0 -101 -45t-44 -110q0 -63 43 -108.5t102 -45.5z" />
<glyph unicode="&#xdd;" horiz-adv-x="829" d="M563 0q20 0 21 23v497l295 832q4 12 -2.5 21t-18.5 9h-317q-18 0 -23 -18q-14 -72 -30.5 -153t-32.5 -152q-10 -39 -16.5 -78t-12.5 -80l-12 52.5t-7.5 30.5t-7.5 27.5t-10 43.5l-78 311q-4 16 -22 16h-328q-12 0 -18 -9t-2 -21q74 -211 146.5 -422t145.5 -422v-485 q0 -23 21 -23h309zM510 1712q-4 0 -9 -3t-7 -7l-183 -258q-8 -12 -3 -23.5t20 -11.5h202l277 264q12 10 6 24.5t-22 14.5h-281z" />
<glyph unicode="&#xde;" horiz-adv-x="978" d="M106 23q0 -23 23 -23h301q20 0 21 23v237q10 -2 20 -2h29q70 0 148.5 22.5t146 78t112.5 149.5t45 235q0 92 -28.5 181.5t-104.5 150.5q-78 63 -155.5 78.5t-159.5 15.5h-53v191q0 23 -21 22h-301q-23 0 -23 -22v-1337zM451 879q8 2 18 2h23q61 0 89.5 -45t28.5 -117 q0 -68 -32.5 -117t-96.5 -49h-30v326z" />
<glyph unicode="&#xdf;" horiz-adv-x="1064" d="M408 -381q23 0 22 23v1257q0 135 34 190.5t87 55.5q45 0 66.5 -30t21.5 -60q0 -18 -2 -40t-6 -38q-53 -35 -89 -99.5t-36 -140.5q0 -84 30.5 -145.5t92.5 -132.5q41 -47 56 -76t15 -61q0 -20 -17 -40t-52 -20q-29 0 -56.5 4t-52.5 17q-10 4 -20 -1.5t-13 -17.5l-32 -231 q0 -16 16 -23q78 -27 180 -26q82 0 151.5 26.5t120 74.5t79 114.5t28.5 146.5q0 47 -6 88t-21.5 80t-41 78t-62.5 82q-33 35 -46 60.5t-13 56.5q0 57 76 104q27 29 41 77t14 91q0 68 -22.5 133.5t-72 118.5t-127 86t-186.5 33q-102 0 -190 -33t-156 -101 q-35 -35 -60.5 -74.5t-44 -92t-27.5 -118t-9 -151.5v-1222q0 -23 22 -23h308z" />
<glyph unicode="&#xe0;" horiz-adv-x="915" d="M838 584q0 74 -11.5 154.5t-52.5 146t-118.5 108.5t-213.5 43q-20 0 -37.5 -1t-35.5 -3q-16 0 -21 -18l-39 -219q-4 -27 23 -27q25 0 50.5 -5t47 -14.5t35.5 -22.5t16 -28q-84 -4 -166 -27.5t-147.5 -70.5t-105 -118.5t-39.5 -172.5q0 -70 21.5 -129t60 -103t92 -68.5 t116.5 -24.5q57 0 112.5 21.5t96.5 57.5l15 -83q0 -23 22 -19l275 39q10 2 16 9t4 18q-10 51 -13 105t-3 114v338zM492 326q0 -20 -5 -33q-10 -23 -31.5 -33t-39.5 -10t-40 21.5t-22 72.5q0 59 42 87t96 32v-137zM190 1417q-16 0 -21 -10t3 -23l197 -282q4 -10 18 -10h186 q14 0 20.5 9t0.5 21l-129 281q-4 14 -21 14h-254z" />
<glyph unicode="&#xe1;" horiz-adv-x="915" d="M838 584q0 74 -11.5 154.5t-52.5 146t-118.5 108.5t-213.5 43q-20 0 -37.5 -1t-35.5 -3q-16 0 -21 -18l-39 -219q-4 -27 23 -27q25 0 50.5 -5t47 -14.5t35.5 -22.5t16 -28q-84 -4 -166 -27.5t-147.5 -70.5t-105 -118.5t-39.5 -172.5q0 -70 21.5 -129t60 -103t92 -68.5 t116.5 -24.5q57 0 112.5 21.5t96.5 57.5l15 -83q0 -23 22 -19l275 39q10 2 16 9t4 18q-10 51 -13 105t-3 114v338zM492 326q0 -20 -5 -33q-10 -23 -31.5 -33t-39.5 -10t-40 21.5t-22 72.5q0 59 42 87t96 32v-137zM483 1417q-16 0 -20 -14l-129 -281q-6 -12 0 -21t20 -9h187 q12 0 18 10l197 282q8 12 3 22.5t-22 10.5h-254z" />
<glyph unicode="&#xe2;" horiz-adv-x="915" d="M838 584q0 74 -11.5 154.5t-52.5 146t-118.5 108.5t-213.5 43q-20 0 -37.5 -1t-35.5 -3q-16 0 -21 -18l-39 -219q-4 -27 23 -27q25 0 50.5 -5t47 -14.5t35.5 -22.5t16 -28q-84 -4 -166 -27.5t-147.5 -70.5t-105 -118.5t-39.5 -172.5q0 -70 21.5 -129t60 -103t92 -68.5 t116.5 -24.5q57 0 112.5 21.5t96.5 57.5l15 -83q0 -23 22 -19l275 39q10 2 16 9t4 18q-10 51 -13 105t-3 114v338zM492 326q0 -20 -5 -33q-10 -23 -31.5 -33t-39.5 -10t-40 21.5t-22 72.5q0 59 42 87t96 32v-137zM379 1417q-12 0 -19 -10l-165 -281q-8 -12 -2 -23t20 -11 h168q12 0 20 12q12 23 25.5 51.5t26.5 50.5l55 -102q8 -12 20 -12h177q14 0 20 11t-2 23l-174 281q-10 10 -19 10h-151z" />
<glyph unicode="&#xe3;" horiz-adv-x="915" d="M838 584q0 74 -11.5 154.5t-52.5 146t-118.5 108.5t-213.5 43q-20 0 -37.5 -1t-35.5 -3q-16 0 -21 -18l-39 -219q-4 -27 23 -27q25 0 50.5 -5t47 -14.5t35.5 -22.5t16 -28q-84 -4 -166 -27.5t-147.5 -70.5t-105 -118.5t-39.5 -172.5q0 -70 21.5 -129t60 -103t92 -68.5 t116.5 -24.5q57 0 112.5 21.5t96.5 57.5l15 -83q0 -23 22 -19l275 39q10 2 16 9t4 18q-10 51 -13 105t-3 114v338zM492 326q0 -20 -5 -33q-10 -23 -31.5 -33t-39.5 -10t-40 21.5t-22 72.5q0 59 42 87t96 32v-137zM332 1114q23 0 22 23q0 59 21 59q14 0 32.5 -9t43.5 -24 q23 -10 52 -23.5t66 -13.5q72 0 114 58.5t42 185.5q0 23 -23 23h-110q-23 0 -23 -23q0 -35 -6 -45t-16 -10q-14 0 -43 18v-2q-4 4 -8 5t-7 3q-12 8 -24 15q-23 10 -46.5 21t-60.5 11q-45 0 -76.5 -22.5t-51 -57t-27.5 -79.5t-8 -90q0 -23 22 -23h115z" />
<glyph unicode="&#xe4;" horiz-adv-x="915" d="M844 584q0 74 -11.5 154.5t-52.5 146t-118.5 108.5t-212.5 43q-20 0 -38 -1t-36 -3q-16 0 -21 -18l-39 -219q-4 -27 23 -27q25 0 50.5 -5t47 -14.5t35.5 -22.5t16 -28q-84 -4 -165.5 -27.5t-147 -70.5t-105.5 -118.5t-40 -172.5q0 -70 21.5 -129t60.5 -103t92 -68.5 t116 -24.5q57 0 112.5 21.5t96.5 57.5l15 -83q0 -23 22 -19l275 39q10 2 16 9t4 18q-10 51 -13 105t-3 114v338zM498 326q0 -20 -4 -33q-10 -23 -32 -33t-40 -10t-40 21.5t-22 72.5q0 59 42 87t96 32v-137zM285 1092q66 0 107.5 45t41.5 116q0 72 -43 116t-106 44 q-61 0 -106.5 -45t-45.5 -115q0 -72 44.5 -116.5t107.5 -44.5zM643 1092q66 0 109 45t43 116q0 72 -43 116t-109 44q-61 0 -105 -45t-44 -115q0 -72 44 -116.5t105 -44.5z" />
<glyph unicode="&#xe5;" horiz-adv-x="915" d="M838 584q0 74 -11.5 154.5t-52.5 146t-118.5 108.5t-213.5 43q-20 0 -37.5 -1t-35.5 -3q-16 0 -21 -18l-39 -219q-4 -27 23 -27q25 0 50.5 -5t47 -14.5t35.5 -22.5t16 -28q-84 -4 -166 -27.5t-147.5 -70.5t-105 -118.5t-39.5 -172.5q0 -70 21.5 -129t60 -103t92 -68.5 t116.5 -24.5q57 0 112.5 21.5t96.5 57.5l15 -83q0 -23 22 -19l275 39q10 2 16 9t4 18q-10 51 -13 105t-3 114v338zM492 326q0 -20 -5 -33q-10 -23 -31.5 -33t-39.5 -10t-40 21.5t-22 72.5q0 59 42 87t96 32v-137zM465 1487q-125 0 -178.5 -61.5t-53.5 -151.5 q0 -84 54.5 -141.5t177.5 -57.5q117 0 172 60.5t55 146.5q0 90 -52 147.5t-175 57.5zM463 1350q37 0 46 -23.5t9 -46.5q0 -20 -10 -45t-45 -25q-33 0 -42 25t-9 41q0 23 10 48.5t41 25.5z" />
<glyph unicode="&#xe6;" horiz-adv-x="1359" d="M1276 401q16 0 20 21q4 29 6.5 56.5t2.5 62.5q0 125 -27 218t-73 154.5t-109.5 92t-137.5 30.5q-84 0 -152.5 -30.5t-121.5 -96.5q-41 59 -110.5 93t-157.5 34q-43 0 -86 -6q-18 -4 -19 -22l23 -220q0 -20 22 -20q59 0 91 -25.5t34 -58.5q-82 -4 -162.5 -25.5t-144 -64.5 t-103.5 -109.5t-40 -160.5q0 -74 22.5 -135.5t62.5 -107.5t96 -71.5t122 -25.5q184 0 299 143q53 -72 141 -107.5t187 -35.5q47 0 92 4t88 14q10 2 13 9t3 18l-6 31q-6 30 -13.5 68t-13.5 71.5t-6 38.5q0 27 -26 22q-37 -6 -76 -6q-72 0 -126 35t-61 112h447zM487 344 q0 -25 -8 -45q-10 -23 -27.5 -34t-39.5 -11q-23 0 -44.5 19.5t-21.5 60.5q0 66 42 90.5t99 26.5v-107zM829 639q0 23 6.5 47.5t16.5 46t25.5 35.5t35.5 14t34 -13t22 -33.5t12 -46t4 -50.5h-156z" />
<glyph unicode="&#xe7;" horiz-adv-x="679" d="M666 279q-2 10 -12.5 15t-20.5 1q-18 -6 -38 -10t-44 -4q-74 0 -117 61t-43 168q0 111 46 171t120 60q27 0 48.5 -5t37.5 -9q23 -6 27 18l37 238q2 8 -3.5 14.5t-11.5 10.5q-18 6 -59 15t-94 9q-111 0 -202 -38t-156.5 -107.5t-101.5 -167.5t-36 -221q0 -195 76 -317 t211 -169l-66 -145q-4 -10 1 -19.5t16 -11.5q59 -4 87.5 -16.5t28.5 -28.5q0 -14 -11 -18t-28 -4q-20 0 -46.5 7t-49.5 17q-10 4 -19.5 0t-13.5 -14l-39 -125q-4 -16 13 -25q29 -16 75 -26.5t91 -10.5q51 0 97 10.5t82 34t57.5 62.5t21.5 94q0 63 -36 104.5t-89 57.5 q6 10 10 17.5t8 15.5q51 4 93 11t59 17q4 4 9 10.5t5 10.5z" />
<glyph unicode="&#xe8;" d="M829 360q18 0 23 19q4 23 7 59.5t3 102.5q0 256 -103.5 375.5t-273.5 119.5q-92 0 -172 -36.5t-139 -107.5t-94 -173.5t-35 -231.5q0 -244 119 -371.5t340 -127.5q35 0 70.5 3t68.5 7q10 2 16.5 9t4.5 18l-37 221q-4 23 -25 18q-10 -2 -22 -2h-21q-68 0 -113 25.5 t-57 72.5h440zM385 618q0 27 5 53.5t15.5 49t25.5 37t38 14.5q20 0 34.5 -13.5t23 -36t12.5 -50t4 -54.5h-158zM217 1417q-16 0 -21.5 -10t3.5 -23l196 -282q4 -10 19 -10h186q14 0 20.5 9t0.5 21l-129 281q-4 14 -21 14h-254z" />
<glyph unicode="&#xe9;" d="M829 360q18 0 23 19q4 23 7 59.5t3 102.5q0 256 -103.5 375.5t-273.5 119.5q-92 0 -172 -36.5t-139 -107.5t-94 -173.5t-35 -231.5q0 -244 119 -371.5t340 -127.5q35 0 70.5 3t68.5 7q10 2 16.5 9t4.5 18l-37 221q-4 23 -25 18q-10 -2 -22 -2h-21q-68 0 -113 25.5 t-57 72.5h440zM385 618q0 27 5 53.5t15.5 49t25.5 37t38 14.5q20 0 34.5 -13.5t23 -36t12.5 -50t4 -54.5h-158zM520 1417q-16 0 -20 -14l-129 -281q-6 -12 0 -21t20 -9h187q12 0 18 10l197 282q8 12 3 22.5t-22 10.5h-254z" />
<glyph unicode="&#xea;" d="M829 360q18 0 23 19q4 23 7 59.5t3 102.5q0 256 -103.5 375.5t-273.5 119.5q-92 0 -172 -36.5t-139 -107.5t-94 -173.5t-35 -231.5q0 -244 119 -371.5t340 -127.5q35 0 70.5 3t68.5 7q10 2 16.5 9t4.5 18l-37 221q-4 23 -25 18q-10 -2 -22 -2h-21q-68 0 -113 25.5 t-57 72.5h440zM385 618q0 27 5 53.5t15.5 49t25.5 37t38 14.5q20 0 34.5 -13.5t23 -36t12.5 -50t4 -54.5h-158zM403 1417q-12 0 -18 -10l-166 -281q-8 -12 -2 -23t21 -11h168q12 0 20 12q12 23 25.5 51.5t25.5 50.5l55 -102q8 -12 21 -12h176q14 0 20.5 11t-1.5 23l-175 281 q-10 10 -18 10h-152z" />
<glyph unicode="&#xeb;" d="M829 360q18 0 23 19q4 23 7 59.5t3 102.5q0 256 -103.5 375.5t-273.5 119.5q-92 0 -172 -36.5t-139 -107.5t-94 -173.5t-35 -231.5q0 -244 119 -371.5t340 -127.5q35 0 70.5 3t68.5 7q10 2 16.5 9t4.5 18l-37 221q-4 23 -25 18q-10 -2 -22 -2h-21q-68 0 -113 25.5 t-57 72.5h440zM385 618q0 27 5 53.5t15.5 49t25.5 37t38 14.5q20 0 34.5 -13.5t23 -36t12.5 -50t4 -54.5h-158zM315 1092q66 0 108 45t42 116q0 72 -43 116t-107 44q-61 0 -106 -45t-45 -115q0 -72 44 -116.5t107 -44.5zM674 1092q66 0 108.5 45t42.5 116q0 72 -43 116 t-108 44q-61 0 -105.5 -45t-44.5 -115q0 -72 44.5 -116.5t105.5 -44.5z" />
<glyph unicode="&#xec;" horiz-adv-x="489" d="M399 0q20 0 21 23v976q0 20 -21 21h-309q-20 0 -20 -21v-976q0 -23 20 -23h309zM-35 1417q-16 0 -21 -10t3 -23l196 -282q4 -10 19 -10h186q14 0 20.5 9t0.5 21l-129 281q-4 14 -21 14h-254z" />
<glyph unicode="&#xed;" horiz-adv-x="489" d="M399 0q20 0 21 23v976q0 20 -21 21h-309q-20 0 -20 -21v-976q0 -23 20 -23h309zM281 1417q-16 0 -21 -14l-129 -281q-6 -12 0 -21t21 -9h186q12 0 18 10l197 282q8 12 3 22.5t-21 10.5h-254z" />
<glyph unicode="&#xee;" horiz-adv-x="489" d="M399 0q20 0 21 23v976q0 20 -21 21h-309q-20 0 -20 -21v-976q0 -23 20 -23h309zM166 1417q-12 0 -19 -10l-165 -281q-8 -12 -2 -23t20 -11h168q12 0 20 12q12 23 25.5 51.5t26.5 50.5l55 -102q8 -12 20 -12h177q14 0 20 11t-2 23l-174 281q-10 10 -19 10h-151z" />
<glyph unicode="&#xef;" horiz-adv-x="489" d="M399 0q20 0 21 23v976q0 20 -21 21h-309q-20 0 -20 -21v-976q0 -23 20 -23h309zM66 1092q66 0 107.5 45t41.5 116q0 72 -43 116t-106 44q-61 0 -106.5 -45t-45.5 -115q0 -72 44.5 -116.5t107.5 -44.5zM424 1092q66 0 108.5 45t42.5 116q0 72 -43 116t-108 44 q-61 0 -105.5 -45t-44.5 -115q0 -72 44.5 -116.5t105.5 -44.5z" />
<glyph unicode="&#xf0;" horiz-adv-x="927" d="M172 1008q8 -16 27 -9q47 23 91 46.5t91 46.5q20 -18 38.5 -42t35.5 -49q-43 6 -82 -2q-59 -12 -117.5 -48t-105 -96t-75 -147t-28.5 -202q0 -240 105.5 -381t308.5 -141q61 0 136 22.5t138.5 84t106.5 172t43 286.5q0 117 -16.5 229.5t-69.5 212.5q-35 63 -75 125 t-81 109l129 61q23 10 8 33l-61 98q-10 16 -27 8q-43 -20 -88 -41.5t-86 -44.5q-47 39 -87 67t-75 46q-4 4 -12 2t-12 -6l-174 -154q-23 -18 2 -32l46 -32t40 -28l-131 -67q-8 -4 -10.5 -14.5t1.5 -18.5zM467 258q-35 0 -54.5 67.5t-19.5 186.5q0 37 3 81t11.5 83t22.5 65.5 t39 26.5q18 0 30.5 -21.5t20.5 -48.5q12 -37 13.5 -87t1.5 -109q0 -49 -3.5 -94.5t-10.5 -78t-20.5 -52t-33.5 -19.5z" />
<glyph unicode="&#xf1;" horiz-adv-x="985" d="M72 23q0 -23 20 -23h309q20 0 21 23v585q0 57 14 82v-2q23 47 58 47t46 -33.5t11 -76.5v-41t1 -101.5t1 -132.5v-129q0 -31 9 -74t20.5 -80.5t20.5 -65.5l9 -28q4 -4 9.5 -9t13.5 -3l307 39q12 2 18.5 12.5t0.5 20.5l-9 19q-10 20 -20 47.5t-19.5 60.5t-9.5 61v414 q0 84 -14.5 156.5t-48 127t-90 86t-138.5 31.5q-68 0 -126 -24.5t-101 -69.5l-14 98q-2 10 -10.5 16.5t-18.5 2.5l-264 -101q-14 -8 -15 -20q2 -20 3.5 -35.5t1.5 -32.5q2 -45 3 -86t1 -98v-663zM387 1114q23 0 23 23q0 59 20 59q14 0 32.5 -9t43.5 -24q23 -10 52.5 -23.5 t66.5 -13.5q72 0 113.5 58.5t41.5 185.5q0 23 -22 23h-111q-23 0 -22 -23q0 -35 -6.5 -45t-16.5 -10q-14 0 -43 18v-2q-4 4 -8 5t-6 3q-12 8 -25 15q-23 10 -46 21t-60 11q-45 0 -77 -22.5t-51.5 -57t-27.5 -79.5t-8 -90q0 -23 22 -23h115z" />
<glyph unicode="&#xf2;" horiz-adv-x="925" d="M467 -16q57 0 129 21.5t135.5 79.5t106.5 161.5t43 267.5q0 115 -27 211t-79 164.5t-130 107.5t-178 39q-82 0 -158 -31.5t-134 -97t-94 -165t-36 -236.5q0 -240 107.5 -381t314.5 -141zM467 258q-41 0 -58.5 68.5t-17.5 185.5q0 45 3 89t11.5 80t22.5 58.5t37 22.5 q18 0 31.5 -22.5t20.5 -58.5t10 -80t3 -89q0 -47 -3 -93t-10 -82t-19.5 -57.5t-30.5 -21.5zM188 1417q-16 0 -21 -10t3 -23l197 -282q4 -10 18 -10h186q14 0 20.5 9t0.5 21l-129 281q-4 14 -21 14h-254z" />
<glyph unicode="&#xf3;" horiz-adv-x="925" d="M467 -16q57 0 129 21.5t135.5 79.5t106.5 161.5t43 267.5q0 115 -27 211t-79 164.5t-130 107.5t-178 39q-82 0 -158 -31.5t-134 -97t-94 -165t-36 -236.5q0 -240 107.5 -381t314.5 -141zM467 258q-41 0 -58.5 68.5t-17.5 185.5q0 45 3 89t11.5 80t22.5 58.5t37 22.5 q18 0 31.5 -22.5t20.5 -58.5t10 -80t3 -89q0 -47 -3 -93t-10 -82t-19.5 -57.5t-30.5 -21.5zM508 1417q-16 0 -21 -14l-129 -281q-6 -12 0.5 -21t20.5 -9h186q12 0 19 10l196 282q8 12 3 22.5t-21 10.5h-254z" />
<glyph unicode="&#xf4;" horiz-adv-x="925" d="M467 -16q57 0 129 21.5t135.5 79.5t106.5 161.5t43 267.5q0 115 -27 211t-79 164.5t-130 107.5t-178 39q-82 0 -158 -31.5t-134 -97t-94 -165t-36 -236.5q0 -240 107.5 -381t314.5 -141zM467 258q-41 0 -58.5 68.5t-17.5 185.5q0 45 3 89t11.5 80t22.5 58.5t37 22.5 q18 0 31.5 -22.5t20.5 -58.5t10 -80t3 -89q0 -47 -3 -93t-10 -82t-19.5 -57.5t-30.5 -21.5zM383 1417q-12 0 -18 -10l-166 -281q-8 -12 -2 -23t20 -11h168q12 0 21 12q12 23 25 51.5t26 50.5l55 -102q8 -12 20 -12h177q14 0 20 11t-2 23l-174 281q-10 10 -18 10h-152z" />
<glyph unicode="&#xf5;" horiz-adv-x="925" d="M467 -16q57 0 129 21.5t135.5 79.5t106.5 161.5t43 267.5q0 115 -27 211t-79 164.5t-130 107.5t-178 39q-82 0 -158 -31.5t-134 -97t-94 -165t-36 -236.5q0 -240 107.5 -381t314.5 -141zM467 258q-41 0 -58.5 68.5t-17.5 185.5q0 45 3 89t11.5 80t22.5 58.5t37 22.5 q18 0 31.5 -22.5t20.5 -58.5t10 -80t3 -89q0 -47 -3 -93t-10 -82t-19.5 -57.5t-30.5 -21.5zM336 1114q23 0 22 23q0 59 21 59q14 0 32.5 -9t43.5 -24q23 -10 52.5 -23.5t65.5 -13.5q72 0 114 58.5t42 185.5q0 23 -22 23h-111q-23 0 -23 -23q0 -35 -6 -45t-16 -10 q-14 0 -43 18v-2q-4 4 -8 5t-6 3q-12 8 -25 15q-23 10 -46.5 21t-60.5 11q-45 0 -76.5 -22.5t-51 -57t-27.5 -79.5t-8 -90q0 -23 22 -23h115z" />
<glyph unicode="&#xf6;" horiz-adv-x="925" d="M467 -16q57 0 129 21.5t135.5 79.5t106.5 161.5t43 267.5q0 115 -27 211t-79 164.5t-130 107.5t-178 39q-82 0 -158 -31.5t-134 -97t-94 -165t-36 -236.5q0 -240 107.5 -381t314.5 -141zM467 258q-41 0 -58.5 68.5t-17.5 185.5q0 45 3 89t11.5 80t22.5 58.5t37 22.5 q18 0 31.5 -22.5t20.5 -58.5t10 -80t3 -89q0 -47 -3 -93t-10 -82t-19.5 -57.5t-30.5 -21.5zM283 1092q66 0 107.5 45t41.5 116q0 72 -43 116t-106 44q-61 0 -106.5 -45t-45.5 -115q0 -72 44.5 -116.5t107.5 -44.5zM641 1092q66 0 109 45t43 116q0 72 -43 116t-109 44 q-61 0 -105 -45t-44 -115q0 -72 44 -116.5t105 -44.5z" />
<glyph unicode="&#xf7;" horiz-adv-x="1220" d="M1120 436q23 0 23 23v186q0 23 -23 23h-1024q-23 0 -22 -23v-186q0 -23 22 -23h1024zM608 59q74 0 113 45.5t39 110.5q0 66 -40 111t-110 45q-66 0 -108.5 -45t-42.5 -111t39.5 -111t109.5 -45zM610 733q74 0 113 45t39 109q0 68 -40 112.5t-110 44.5q-66 0 -108.5 -45 t-42.5 -112q0 -63 39.5 -108.5t109.5 -45.5z" />
<glyph unicode="&#xf8;" horiz-adv-x="925" d="M467 1036q-82 0 -158 -31.5t-134 -97t-94 -165t-36 -236.5q0 -111 23.5 -201t68.5 -155l-69 -121q-4 -8 -3 -17.5t9 -13.5l123 -84q8 -6 18 -5t14 11l60 100q35 -16 83 -26t95 -10q57 0 129 21.5t135.5 79.5t106.5 161.5t43 267.5q0 215 -95 356l82 136q4 6 2 16t-12 14 l-131 72q-8 4 -17.5 2t-13.5 -10l-59 -99q-76 35 -170 35zM373 512q0 33 3 76t13 82t27.5 65.5t48.5 26.5q33 0 43 -19l-135 -245v14zM469 258q-35 0 -41 25l129 227v-29q0 -45 -5 -86t-16.5 -71.5t-27.5 -48t-39 -17.5z" />
<glyph unicode="&#xf9;" horiz-adv-x="974" d="M891 999q0 20 -23 21h-307q-23 0 -22 -21v-616q0 -23 -5.5 -44.5t-11.5 -33.5q-12 -20 -41 -20q-31 0 -46 43t-15 121v550q0 20 -23 21h-307q-20 0 -20 -21v-581q0 -217 66.5 -325.5t223.5 -108.5q66 0 123.5 25.5t98.5 68.5l28 -103q2 -6 9.5 -11t15.5 -3l264 39 q18 4 19 25q0 33 -3.5 60.5t-7.5 55.5q-6 41 -11 87t-5 106v665zM219 1417q-16 0 -21 -10t3 -23l196 -282q4 -10 19 -10h186q14 0 20.5 9t0.5 21l-129 281q-4 14 -21 14h-254z" />
<glyph unicode="&#xfa;" horiz-adv-x="974" d="M891 999q0 20 -23 21h-307q-23 0 -22 -21v-616q0 -23 -5.5 -44.5t-11.5 -33.5q-12 -20 -41 -20q-31 0 -46 43t-15 121v550q0 20 -23 21h-307q-20 0 -20 -21v-581q0 -217 66.5 -325.5t223.5 -108.5q66 0 123.5 25.5t98.5 68.5l28 -103q2 -6 9.5 -11t15.5 -3l264 39 q18 4 19 25q0 33 -3.5 60.5t-7.5 55.5q-6 41 -11 87t-5 106v665zM522 1417q-16 0 -20 -14l-129 -281q-6 -12 0 -21t20 -9h187q12 0 18 10l197 282q8 12 3 22.5t-22 10.5h-254z" />
<glyph unicode="&#xfb;" horiz-adv-x="974" d="M891 999q0 20 -23 21h-307q-23 0 -22 -21v-616q0 -23 -5.5 -44.5t-11.5 -33.5q-12 -20 -41 -20q-31 0 -46 43t-15 121v550q0 20 -23 21h-307q-20 0 -20 -21v-581q0 -217 66.5 -325.5t223.5 -108.5q66 0 123.5 25.5t98.5 68.5l28 -103q2 -6 9.5 -11t15.5 -3l264 39 q18 4 19 25q0 33 -3.5 60.5t-7.5 55.5q-6 41 -11 87t-5 106v665zM408 1417q-12 0 -19 -10l-166 -281q-8 -12 -2 -23t21 -11h168q12 0 20 12q12 23 25.5 51.5t25.5 50.5l56 -102q8 -12 20 -12h176q14 0 20.5 11t-1.5 23l-174 281q-10 10 -19 10h-151z" />
<glyph unicode="&#xfc;" horiz-adv-x="974" d="M891 999q0 20 -23 21h-307q-23 0 -22 -21v-616q0 -23 -5.5 -44.5t-11.5 -33.5q-12 -20 -41 -20q-31 0 -46 43t-15 121v550q0 20 -23 21h-307q-20 0 -20 -21v-581q0 -217 66.5 -325.5t223.5 -108.5q66 0 123.5 25.5t98.5 68.5l28 -103q2 -6 9.5 -11t15.5 -3l264 39 q18 4 19 25q0 33 -3.5 60.5t-7.5 55.5q-6 41 -11 87t-5 106v665zM313 1092q66 0 108 45t42 116q0 72 -43 116t-107 44q-61 0 -106 -45t-45 -115q0 -72 44 -116.5t107 -44.5zM672 1092q66 0 108.5 45t42.5 116q0 72 -43 116t-108 44q-61 0 -105.5 -45t-44.5 -115 q0 -72 44.5 -116.5t105.5 -44.5z" />
<glyph unicode="&#xfd;" horiz-adv-x="839" d="M8 981q-18 -8 -12 -29l276 -864q6 -16 7 -31q0 -6 -4.5 -13t-8.5 -15q-25 -55 -71 -88q-27 -20 -58 -35t-61 -25q-18 -8 -13 -28l87 -267q6 -18 24 -14q35 6 108.5 46t145.5 118q39 43 70.5 97t58.5 112.5t47.5 120t36.5 118.5l215 768q6 20 -14 29l-301 80 q-23 6 -27 -21l-65 -520l-80 522q-2 10 -10.5 15.5t-18.5 3.5zM455 1417q-16 0 -21 -14l-129 -281q-6 -12 0 -21t21 -9h186q12 0 18 10l197 282q8 12 3 22.5t-21 10.5h-254z" />
<glyph unicode="&#xfe;" horiz-adv-x="958" d="M98 1382q-23 0 -22 -22v-1718q0 -23 22 -23h305q23 0 23 23v403q29 -27 69 -44t93 -17q59 0 116.5 32.5t103.5 98t74.5 164t28.5 231.5q0 96 -16 190.5t-53 169t-97.5 120.5t-148.5 46q-51 0 -95 -22.5t-73 -55.5l-4 402q0 23 -23 22h-303zM426 649q0 18 4 32.5t10 27.5 q8 10 19.5 18t25.5 8q33 0 55.5 -55t22.5 -172q0 -94 -20.5 -161.5t-65.5 -67.5q-10 0 -18 6t-17 14q-8 10 -12 32.5t-4 49.5v268z" />
<glyph unicode="&#xff;" horiz-adv-x="839" d="M8 981q-18 -8 -12 -29l276 -864q6 -16 7 -31q0 -6 -4.5 -13t-8.5 -15q-25 -55 -71 -88q-27 -20 -58 -35t-61 -25q-18 -8 -13 -28l87 -267q6 -18 24 -14q35 6 108.5 46t145.5 118q39 43 70.5 97t58.5 112.5t47.5 120t36.5 118.5l215 768q6 20 -14 29l-301 80 q-23 6 -27 -21l-65 -520l-80 522q-2 10 -10.5 15.5t-18.5 3.5zM248 1092q66 0 107.5 45t41.5 116q0 72 -43 116t-106 44q-61 0 -106.5 -45t-45.5 -115q0 -72 44.5 -116.5t107.5 -44.5zM606 1092q66 0 109 45t43 116q0 72 -43 116t-109 44q-61 0 -105 -45t-44 -115 q0 -72 44 -116.5t105 -44.5z" />
<glyph unicode="&#x152;" horiz-adv-x="1368" d="M1298 289q0 20 -20 20h-307v258h270q23 0 23 23v254q0 23 -23 22h-270v207h284q23 0 23 21v266q0 23 -23 22h-503q-29 0 -62 7q-2 0 -5 1t-5 1q-20 4 -44 6t-52 2q-154 0 -257.5 -62.5t-167 -164t-90 -227.5t-26.5 -251q0 -129 21.5 -256t81 -228t162 -163.5t265.5 -62.5 q27 0 48.5 2t42 6t40 6t39.5 2h535q20 0 20 23v266zM621 299q-18 -6 -48 -6q-78 0 -124 99.5t-43 307.5q0 203 46 295t117 92q35 0 52 -8v-780z" />
<glyph unicode="&#x153;" horiz-adv-x="1413" d="M1331 373q18 0 23 18q4 16 6 54t2 96q0 125 -26.5 218t-74 154.5t-113 92t-142.5 30.5q-166 0 -279 -133q-49 72 -117.5 102.5t-140.5 30.5q-80 0 -154.5 -31.5t-133 -97t-93.5 -165t-35 -236.5q0 -121 28 -218.5t78 -165t121.5 -103t159.5 -35.5q72 0 145.5 30.5 t125.5 102.5q59 -70 141 -101.5t172 -31.5q31 0 81 7t85 19q16 8 12 23l-31 213q-4 23 -26 18q-37 -6 -82 -6q-59 0 -108.5 30.5t-69.5 84.5h446zM473 762q20 0 33.5 -21.5t22 -56.5t11.5 -79t3 -89q0 -53 -2 -100t-10.5 -82t-21.5 -55.5t-36 -20.5q-39 0 -55.5 66.5 t-16.5 183.5q0 43 2.5 88t10.5 82t22 60.5t37 23.5zM885 612q0 27 5 54.5t16.5 50t27.5 37t41 14.5q41 0 52 -47t11 -109h-153z" />
<glyph unicode="&#x178;" horiz-adv-x="829" d="M563 0q20 0 21 23v497l295 832q4 12 -2.5 21t-18.5 9h-317q-18 0 -23 -18q-14 -72 -30.5 -153t-32.5 -152q-10 -39 -16.5 -78t-12.5 -80l-12 52.5t-7.5 30.5t-7.5 27.5t-10 43.5l-78 311q-4 16 -22 16h-328q-12 0 -18 -9t-2 -21q74 -211 146.5 -422t145.5 -422v-485 q0 -23 21 -23h309zM608 1409q59 0 102.5 45t43.5 109q0 66 -43 110.5t-103 44.5q-57 0 -101 -45t-44 -110q0 -63 43 -108.5t102 -45.5zM260 1409q59 0 102.5 45t43.5 109q0 66 -43.5 110.5t-102.5 44.5q-57 0 -100 -45t-43 -110q0 -63 42 -108.5t101 -45.5z" />
<glyph unicode="&#x2c6;" horiz-adv-x="614" d="M227 1417q-12 0 -18 -10l-166 -281q-8 -12 -2 -23t20 -11h168q12 0 21 12q12 23 25.5 51.5t25.5 50.5l55 -102q8 -12 21 -12h176q14 0 20.5 11t-2.5 23l-174 281q-10 10 -18 10h-152z" />
<glyph unicode="&#x2dc;" horiz-adv-x="614" d="M180 1114q23 0 23 23q0 59 20 59q14 0 32.5 -9t43.5 -24q23 -10 52.5 -23.5t66.5 -13.5q72 0 113.5 58.5t41.5 185.5q0 23 -22 23h-111q-23 0 -22 -23q0 -35 -6 -45t-17 -10q-14 0 -43 18v-2q-4 4 -8 5t-6 3q-12 8 -25 15q-23 10 -46 21t-60 11q-45 0 -77 -22.5 t-51.5 -57t-27.5 -79.5t-8 -90q0 -23 23 -23h114z" />
<glyph unicode="&#x2000;" horiz-adv-x="859" />
<glyph unicode="&#x2001;" horiz-adv-x="1718" />
<glyph unicode="&#x2002;" horiz-adv-x="859" />
<glyph unicode="&#x2003;" horiz-adv-x="1718" />
<glyph unicode="&#x2004;" horiz-adv-x="572" />
<glyph unicode="&#x2005;" horiz-adv-x="429" />
<glyph unicode="&#x2006;" horiz-adv-x="286" />
<glyph unicode="&#x2007;" horiz-adv-x="286" />
<glyph unicode="&#x2008;" horiz-adv-x="214" />
<glyph unicode="&#x2009;" horiz-adv-x="343" />
<glyph unicode="&#x200a;" horiz-adv-x="95" />
<glyph unicode="&#x2010;" horiz-adv-x="512" d="M68 748q-23 0 -23 -23v-215q0 -23 23 -23h376q23 0 23 23v215q0 23 -23 23h-376z" />
<glyph unicode="&#x2011;" horiz-adv-x="512" d="M68 748q-23 0 -23 -23v-215q0 -23 23 -23h376q23 0 23 23v215q0 23 -23 23h-376z" />
<glyph unicode="&#x2012;" horiz-adv-x="512" d="M68 748q-23 0 -23 -23v-215q0 -23 23 -23h376q23 0 23 23v215q0 23 -23 23h-376z" />
<glyph unicode="&#x2013;" horiz-adv-x="1024" d="M76 664q-23 0 -23 -23v-207q0 -20 23 -20h872q23 0 23 20v207q0 23 -23 23h-872z" />
<glyph unicode="&#x2014;" horiz-adv-x="2048" d="M90 664q-20 0 -20 -23v-207q0 -20 20 -20h1868q20 0 20 20v207q0 23 -20 23h-1868z" />
<glyph unicode="&#x2018;" horiz-adv-x="399" d="M266 840q16 0 21 18q16 129 54 253t85 261q4 12 -2 21.5t-21 7.5l-153 -19q-10 0 -14 -10q-76 -125 -138.5 -253t-107.5 -271q-4 -12 3 -21.5t19 -7.5z" />
<glyph unicode="&#x2019;" horiz-adv-x="399" d="M139 1382q-16 0 -20 -18q-16 -129 -54 -253t-85 -261q-4 -12 2 -22.5t20 -8.5l154 21q8 0 14 10q76 125 138.5 253t107.5 271q4 12 -3 20.5t-20 6.5z" />
<glyph unicode="&#x201a;" horiz-adv-x="503" d="M399 -381q23 0 23 23v1394q0 41 21.5 73t68.5 32q20 0 38.5 -2t33.5 -6q10 -4 18 1t10 15l31 240q4 18 -16 22q-31 10 -75 16.5t-101 6.5q-86 0 -153 -26t-114 -73q-66 -63 -90 -140t-24 -167v-1386q0 -23 22 -23h307z" />
<glyph unicode="&#x201c;" horiz-adv-x="716" d="M262 840q14 0 19 18q18 129 55 253t84 261q4 12 -2 21.5t-19 7.5l-153 -19q-4 0 -9.5 -3t-7.5 -7q-74 -125 -136 -253t-107 -271q-4 -12 3 -21.5t19 -7.5zM590 840q14 0 18 18q18 129 55 253t85 261q4 12 -2.5 21.5t-20.5 7.5l-152 -19q-4 0 -9 -3t-7 -7 q-74 -125 -136.5 -253t-107.5 -271q-4 -12 3.5 -21.5t17.5 -7.5z" />
<glyph unicode="&#x201d;" horiz-adv-x="716" d="M133 1382q-14 0 -18 -18q-18 -129 -55 -253t-85 -261q-4 -12 2.5 -22.5t20.5 -8.5l152 21q10 0 16 10q74 125 136.5 253t107.5 271q4 12 -3.5 20.5t-17.5 6.5zM461 1382q-14 0 -19 -18q-18 -129 -55 -253t-84 -261q-4 -12 2 -22.5t19 -8.5l153 21q10 0 17 10 q74 125 136 253t107 271q4 12 -3 20.5t-19 6.5z" />
<glyph unicode="&#x201e;" horiz-adv-x="716" d="M150 -188q10 0 16 10q74 125 136.5 253t107.5 271q4 10 -3.5 19.5t-17.5 7.5l-256 -19q-14 0 -18 -18q-18 -129 -55 -253t-85 -261q-4 -12 2.5 -22.5t20.5 -8.5zM477 -188q10 0 17 10q74 125 136 253t107 271q4 10 -3 19.5t-19 7.5l-254 -19q-14 0 -19 -18 q-18 -129 -55 -253t-84 -261q-4 -12 2 -22.5t19 -8.5z" />
<glyph unicode="&#x2022;" horiz-adv-x="614" d="M307 451q109 0 174.5 65.5t65.5 181.5q0 123 -69.5 186.5t-168.5 63.5q-104 0 -172.5 -66.5t-68.5 -185.5q0 -113 68.5 -179t170.5 -66z" />
<glyph unicode="&#x2026;" horiz-adv-x="2048" d="M360 -16q88 0 142.5 59t54.5 160q0 104 -57.5 162.5t-137.5 58.5q-39 0 -73.5 -16.5t-62 -46t-44 -70.5t-16.5 -88q0 -49 15.5 -90t42 -70t62 -44t74.5 -15zM1683 -16q88 0 142.5 59t54.5 160q0 104 -58.5 162.5t-135.5 58.5q-39 0 -75 -16.5t-62.5 -46t-43 -70.5 t-16.5 -88q0 -100 57 -159.5t137 -59.5zM1022 -16q88 0 142.5 59t54.5 160q0 104 -58.5 162.5t-136.5 58.5q-39 0 -74 -16.5t-62.5 -46t-44 -70.5t-16.5 -88q0 -49 15.5 -90t42 -70t62.5 -44t75 -15z" />
<glyph unicode="&#x202f;" horiz-adv-x="343" />
<glyph unicode="&#x2039;" horiz-adv-x="460" d="M477 885q8 12 1 23.5t-19 11.5h-217q-12 0 -21 -13l-209 -375q-4 -10 0 -20l211 -375q8 -12 21 -12h215q12 0 19 10t-1 23q-51 92 -104.5 182t-106.5 182z" />
<glyph unicode="&#x203a;" horiz-adv-x="460" d="M195 520l-211 -362q-8 -12 -1 -22.5t19 -10.5h217q12 0 21 12l209 375q4 10 0 20l-211 375q-8 12 -21 13h-215q-12 0 -19.5 -10.5t1.5 -22.5z" />
<glyph unicode="&#x205f;" horiz-adv-x="429" />
<glyph unicode="&#x20ac;" horiz-adv-x="937" d="M47 909q-20 0 -20 -16v-152q0 -14 20 -14h72q-2 -14 -2 -29v-28v-27h-70q-20 0 -20 -16v-152q0 -14 20 -14h90q20 -100 61.5 -187.5t107 -151t155.5 -99t209 -35.5q72 0 127 10t84 22q14 6 14 21l-25 258q-4 27 -28 20q-23 -6 -55.5 -11t-57.5 -5q-72 0 -125 38t-84 120 h334q20 0 20 14v152q0 16 -20 16h-369v41v43h369q20 0 20 14v152q0 16 -20 16h-336q33 90 88.5 131t126.5 41q35 0 59.5 -6t45.5 -16q10 -4 20 1t12 15l48 258q2 4 -2.5 10.5t-8.5 10.5q-23 14 -74 27.5t-126 13.5q-90 0 -178.5 -29t-164 -88t-134 -150.5t-87.5 -218.5h-96z " />
<glyph unicode="&#x2122;" horiz-adv-x="1310" d="M1276 549q27 0 22 22l-77 791q-4 20 -23 20h-205q-18 0 -22 -18q-20 -96 -41 -197.5t-41 -197.5l-70 395q-4 18 -20 18h-230q-23 0 -22 -20l-70 -791q-4 -23 21 -22h168q20 0 20 18l21 408l77 -389q4 -18 23 -19h135q18 0 23 17l96 389l24 -406q0 -18 23 -18h168z M14 1382q-23 0 -22 -22v-156q0 -23 22 -22h125v-613q0 -20 21 -20h176q20 0 20 20v613h125q23 0 23 22v156q0 23 -23 22h-467z" />
<glyph unicode="&#x25fc;" horiz-adv-x="1024" d="M0 1024h1024v-1024h-1024v1024z" />
</font>
</defs>
</svg>
